<?xml version="1.0" encoding="iso-8859-1"?>
<!-- Generator: Adobe Illustrator 19.0.0, SVG Export Plug-In . SVG Version: 6.00 Build 0)  -->
<svg version="1.1" id="Layer_1" xmlns="http://www.w3.org/2000/svg" xmlns:xlink="http://www.w3.org/1999/xlink" x="0px" y="0px"
	 viewBox="0 0 512 512" style="enable-background:new 0 0 512 512;" xml:space="preserve">
<path style="fill:#D7143A;" d="M362.158,21.082c-38.791,0-77.1,14.983-106.148,40.855c-29.059-25.869-67.374-40.855-106.151-40.855
	C65.824,21.082,0,86.906,0,170.935C0,273.262,71.857,336.34,180.626,431.82c9.359,8.216,19.018,16.697,28.958,25.484
	c0.058,0.051,0.117,0.102,0.176,0.154l33.042,28.545c3.793,3.278,8.502,4.915,13.212,4.915c4.709,0,9.418-1.638,13.212-4.915
	l33.042-28.545c0.059-0.051,0.119-0.102,0.178-0.155c65.298-57.75,114.249-101.953,149.574-144.954
	C492.94,262.535,512,217.598,512,170.935C512,86.906,446.181,21.082,362.158,21.082z"/>
<path style="fill:#A90028;" d="M362.158,21.082c-38.791,0-77.1,14.983-106.148,40.855c-0.004-0.003-0.007-0.005-0.009-0.008v428.99
	c0.005,0,0.008,0,0.013,0c4.709,0,9.418-1.638,13.212-4.915l33.042-28.545c0.059-0.051,0.119-0.102,0.178-0.155
	c65.298-57.75,114.249-101.953,149.574-144.954C492.94,262.535,512,217.598,512,170.935C512,86.906,446.181,21.082,362.158,21.082z"
	/>
<polygon style="fill:#FFFFFF;" points="289.684,208.843 289.684,141.474 222.316,141.474 222.316,208.843 154.947,208.843 
	154.947,276.211 222.316,276.211 222.316,343.58 289.684,343.58 289.684,276.211 357.053,276.211 357.053,208.843 "/>
<g>
</g>
<g>
</g>
<g>
</g>
<g>
</g>
<g>
</g>
<g>
</g>
<g>
</g>
<g>
</g>
<g>
</g>
<g>
</g>
<g>
</g>
<g>
</g>
<g>
</g>
<g>
</g>
<g>
</g>
</svg>
