<svg id="Capa_1" enable-background="new 0 0 512 512" height="512" viewBox="0 0 512 512" width="512" xmlns="http://www.w3.org/2000/svg"><g><path d="m271 46v-46h-15-15v46c0 16.348-8.892 31.45-23.218 39.375l14.561 26.25c9.664-5.359 17.346-13.037 23.657-21.66 6.312 8.622 13.993 16.3 23.657 21.66l14.561-26.25c-14.326-7.925-23.218-23.027-23.218-39.375z" fill="#f25a3c"/><path d="m279.657 111.625 14.561-26.25c-14.326-7.925-23.218-23.027-23.218-39.375v-46h-15v89.965c6.312 8.623 13.993 16.301 23.657 21.66z" fill="#e63a3a"/><g><path d="m166 271c-24.814 0-45-20.186-45-45v-90c0-41.353 33.647-75 75-75 24.814 0 45 20.186 45 45v90c0 41.353-33.647 75-75 75z" fill="#ff7f40"/></g><g><path d="m346 271c-41.353 0-75-33.647-75-75v-90c0-24.814 20.186-45 45-45 41.353 0 75 33.647 75 75v90c0 24.814-20.186 45-45 45z" fill="#f25a3c"/></g><path d="m496.496 181.002c-24.576.165-45.139 21.597-46.582 46.133-.906 15.397-2.549 30.786-5.175 45.672l-14.567 14.739-15.894-15.285c-77.715 6.443-130.403 65.256-138.527 138.869-3.151 28.552-4.751 58.073-4.751 85.87v15h120v-15c0-14.443 10.723-25.404 31.274-43.202 35.332-30.586 89.726-76.831 89.726-197.798v-75s-15.335 0-15.504.002z" fill="#fb9"/><path d="m414.278 272.262c-6.055 31.276-22.769 78.498-45.251 90.452l13.682 26.704c33.819-16.91 54.9-76.4 62.031-116.611-10.274-1.179-20.409-1.38-30.462-.545z" fill="#ff9680"/><path d="m15.504 181.002c24.576.165 45.139 21.597 46.582 46.133.906 15.397 2.549 30.786 5.175 45.672l14.567 14.739 15.894-15.285c77.715 6.443 130.403 65.256 138.527 138.869 3.151 28.552 4.751 58.073 4.751 85.87v15h-120v-15c0-14.443-10.723-25.404-31.274-43.202-35.332-30.586-89.726-76.831-89.726-197.798v-75s15.335 0 15.504.002z" fill="#ffd9b3"/><path d="m97.722 272.262c6.055 31.276 22.769 78.498 45.251 90.452l-13.682 26.704c-33.819-16.91-54.9-76.4-62.031-116.611 10.274-1.179 20.409-1.38 30.462-.545z" fill="#fb9"/></g></svg>