<svg width="44" height="48" viewBox="0 0 44 48" fill="none" xmlns="http://www.w3.org/2000/svg">
<path d="M22.2718 1.34787C22.2718 2.08308 22.2718 2.76928 22.2473 2.86731C22.2473 2.98985 22.4186 3.08787 22.6144 3.13689C22.9326 3.21041 23.006 2.94083 23.006 1.61745C23.006 0.343081 22.9326 -1.7643e-05 22.6389 -1.7643e-05C22.3452 -1.7643e-05 22.2718 0.318574 22.2718 1.34787Z" fill="#DE0526"/>
<path d="M18.3803 2.91648C18.1111 3.08803 18.2335 3.30859 18.8698 3.87226C19.4817 4.41141 19.7754 4.55845 20.0201 4.3624C20.1914 4.21536 20.2893 4.09282 20.2648 4.06831C20.2159 4.04381 19.8488 3.74972 19.4572 3.38211C18.9677 2.94099 18.6006 2.79395 18.3803 2.91648Z" fill="#DE0526"/>
<path d="M25.6251 3.382C25.0133 3.99468 24.7685 4.65637 25.0867 4.65637C25.4048 4.65637 26.6775 3.55355 26.6775 3.28398C26.6775 2.6713 26.2615 2.72031 25.6251 3.382Z" fill="#DE0526"/>
<path d="M21.5379 4.09276C20.4855 4.53389 19.7023 6.02882 19.9226 7.25417C20.1183 8.18544 21.1708 9.21474 22.1497 9.38629C23.9853 9.70488 25.6007 7.54826 24.8664 5.75924C24.279 4.38685 22.7616 3.62713 21.5379 4.09276Z" fill="#DE0526"/>
<path d="M15.6641 6.61691C15.6641 7.05804 15.8354 7.10706 17.3773 7.10706C18.9192 7.10706 19.0905 7.05804 19.0905 6.61691C19.0905 6.17579 18.9192 6.12677 17.3773 6.12677C15.8354 6.12677 15.6641 6.17579 15.6641 6.61691Z" fill="#DE0526"/>
<path d="M25.6982 6.59246C25.6982 6.98458 25.9185 7.0826 27.2401 7.15613C29.0757 7.27866 29.3694 7.18063 29.3694 6.59246C29.3694 6.17584 29.1736 6.12683 27.5338 6.12683C25.894 6.12683 25.6982 6.17584 25.6982 6.59246Z" fill="#DE0526"/>
<path d="M3.59808 7.49917C3.52466 7.89128 3.50018 8.25888 3.57361 8.3079C3.62255 8.35691 4.74839 8.70001 6.11896 9.09212C7.46507 9.45973 8.98249 9.94987 9.47198 10.1704C13.7061 12.0085 15.5906 13.1848 17.7689 15.3169C19.1884 16.7383 21.0485 19.6057 21.0485 20.4144C21.0485 20.88 20.5345 22.0564 20.3387 22.0564C20.2653 22.0564 19.8003 21.3212 19.3352 20.4144C18.7479 19.2871 17.7689 18.0617 16.2514 16.5423C14.269 14.5572 13.6816 14.1406 11.2342 12.9397C8.2972 11.4938 6.07001 10.6606 4.43022 10.391C3.42676 10.244 3.42676 10.244 3.42676 11.0037C3.42676 11.8614 3.57361 11.9595 6.36371 12.7192C9.54541 13.6014 13.1676 15.66 15.2725 17.7676C16.6186 19.1155 17.1815 19.9488 18.3807 22.2769C19.3597 24.2375 19.3842 24.2865 19.066 25.3648C18.6989 26.6392 18.4542 26.7372 18.1115 25.7814C17.0591 22.9386 14.4893 19.5076 11.895 17.5471C10.3531 16.3707 7.68534 15.0964 5.75184 14.5817C3.59808 14.0426 3.42676 14.0671 3.42676 15.0473C3.42676 15.8316 3.47571 15.8806 4.52811 16.0031C7.19585 16.3707 11.1852 18.6989 13.339 21.1251C15.199 23.2572 17.0836 26.9578 17.622 29.531C17.7444 30.1682 17.8668 30.2662 18.5765 30.2662C19.3597 30.2662 19.4331 30.1927 19.7513 29.0409C20.6324 25.855 20.975 24.9482 22.0275 22.7916C24.5239 17.6206 27.3384 14.6797 32.1844 12.1555C34.3382 11.0282 37.2751 9.94987 39.6002 9.43522C41.1176 9.09212 41.3624 8.96959 41.3624 8.50396C41.3624 7.30311 41.1176 7.2541 38.2786 7.98931C32.4536 9.43522 26.9468 12.8172 23.5449 17.0079C22.6638 18.1107 22.1498 18.6009 22.0764 18.3558C21.8806 17.8166 20.51 15.8316 20.1429 15.611C19.9716 15.513 19.8247 15.2679 19.8247 15.0964C19.8247 14.8023 18.601 13.6749 16.1536 11.7389C14.0243 10.0479 7.61191 7.35212 4.74839 6.96001C3.79388 6.81297 3.74493 6.83747 3.59808 7.49917Z" fill="#DE0526"/>
<path d="M18.8703 9.36174C18.3074 9.87639 18.1361 10.1705 18.3074 10.342C18.6256 10.6606 19.7514 9.99893 19.9961 9.41076C20.2898 8.65104 19.678 8.62653 18.8703 9.36174Z" fill="#DE0526"/>
<path d="M24.9883 9.11667C24.9883 9.43526 25.3064 9.9254 25.698 10.2195C26.2854 10.7096 26.4078 10.7341 26.5302 10.391C26.6281 10.146 26.4078 9.75385 25.9183 9.28822C25.0127 8.43047 24.9638 8.43047 24.9883 9.11667Z" fill="#DE0526"/>
<path d="M22.0273 12.0085C22.0273 13.3809 22.1008 13.724 22.3945 13.724C22.6882 13.724 22.7616 13.3809 22.7616 12.0085C22.7616 10.6361 22.6882 10.293 22.3945 10.293C22.1008 10.293 22.0273 10.6361 22.0273 12.0085Z" fill="#DE0526"/>
<path d="M40.5056 10.9057C38.8902 11.2978 36.6631 12.0085 34.803 12.7682C28.6354 15.2925 25.0621 19.4587 22.5902 26.9578C21.6601 29.7271 21.6846 29.9477 22.6881 30.2418C23.1776 30.4133 23.2755 30.2418 23.8873 28.2567C24.7684 25.3649 26.5795 21.5418 27.9991 19.6792C30.3486 16.5913 34.1177 14.4347 39.7224 12.9643C40.3832 12.8172 40.9706 12.5232 41.044 12.3516C41.2153 11.9105 40.7993 10.8322 40.5056 10.9057Z" fill="#DE0526"/>
<path d="M39.4045 14.5817C37.1528 15.2189 33.9467 16.7873 32.3069 18.0862C29.4923 20.3409 26.433 24.7031 25.3316 28.1341C24.8911 29.482 24.94 29.7271 25.87 29.9967C26.3106 30.1437 26.433 29.9967 26.8001 28.9919C27.7791 26.1981 29.4923 23.0612 30.6181 22.0073C30.8629 21.7623 31.1321 21.4192 31.2544 21.2476C31.7195 20.4634 34.534 18.4783 36.2228 17.7186C38.6703 16.6158 38.866 16.5178 40.0898 16.1502C41.0443 15.8806 41.1422 15.7825 40.9953 15.2189C40.7751 14.3121 40.6282 14.2386 39.4045 14.5817Z" fill="#DE0526"/>
<path d="M2.69238 33.06C2.69238 33.2315 3.59794 33.3295 5.58039 33.354C7.14676 33.354 8.61524 33.4031 8.81103 33.4276C9.91239 33.6481 41.8517 33.8197 41.8517 33.6236C41.8517 33.305 35.4883 33.109 17.8177 32.9374C6.65727 32.8149 2.69238 32.8394 2.69238 33.06Z" fill="#DE0526"/>
<path d="M3.6709 36.4911C3.6709 38.5252 3.74432 38.9663 4.03802 38.9663C4.33171 38.9663 4.40514 38.6477 4.40514 37.4959C4.40514 36.6626 4.50303 36.0255 4.64988 36.0255C4.79673 36.0255 5.13937 36.5156 5.43307 37.1283C5.72676 37.741 6.04493 38.2311 6.14283 38.2311C6.21626 38.2311 6.5589 37.741 6.87707 37.1283C7.19524 36.5156 7.53788 36.0255 7.63578 36.0255C7.75816 36.0255 7.83158 36.6872 7.83158 37.4959C7.83158 38.6477 7.905 38.9663 8.1987 38.9663C8.49239 38.9663 8.56582 38.5497 8.56582 36.6381C8.56582 33.8198 8.24765 33.6238 7.09734 35.6824C6.21626 37.2018 6.14283 37.2018 5.16385 35.3638C4.8212 34.7266 4.33171 34.1629 4.11144 34.1139C3.71985 34.0404 3.6709 34.2855 3.6709 36.4911Z" fill="#DE0526"/>
<path d="M14.3423 35.8538C12.9962 38.8192 12.9472 38.9662 13.2654 38.9662C13.4367 38.9662 13.7304 38.7456 13.9017 38.4761C14.3667 37.7408 16.0065 37.7899 16.7408 38.5986C17.2547 39.1623 17.8666 39.4073 17.8666 39.0642C17.8666 38.9907 17.4016 37.8879 16.8387 36.6135C16.1779 35.1186 15.6884 34.3099 15.4436 34.3099C15.1989 34.3099 14.7828 34.9225 14.3423 35.8538ZM15.8842 36.2459C16.1534 36.7606 16.3002 37.2507 16.2268 37.3487C16.031 37.5448 14.8073 37.5448 14.636 37.3487C14.5136 37.2507 15.1989 35.2901 15.3457 35.2901C15.3947 35.2901 15.6149 35.7068 15.8842 36.2459Z" fill="#DE0526"/>
<path d="M22.2722 36.7606C22.2722 38.7702 22.3456 39.2113 22.6393 39.2113C22.933 39.2113 23.0065 38.7702 23.0065 36.7606C23.0065 34.751 22.933 34.3099 22.6393 34.3099C22.3456 34.3099 22.2722 34.751 22.2722 36.7606Z" fill="#DE0526"/>
<path d="M27.9503 36.8831C27.9259 39.0398 27.9503 39.2113 28.3909 39.2113C28.8314 39.2113 28.8804 39.0398 28.9048 37.6674C28.9048 36.0499 28.9048 36.0499 29.9573 37.8144L30.4957 38.7457L31.2299 37.4468L31.9397 36.1479L32.0621 37.6919C32.2579 40.02 32.6739 39.5299 32.7474 36.8831C32.7963 35.4372 32.7229 34.555 32.576 34.555C32.4292 34.555 31.9397 35.1676 31.4502 35.9028C30.9852 36.6381 30.5446 37.2507 30.4957 37.2507C30.4223 37.2507 30.0307 36.6381 29.6146 35.9028C29.1251 35.0451 28.6846 34.555 28.3909 34.555C27.9993 34.555 27.9503 34.8 27.9503 36.8831Z" fill="#DE0526"/>
<path d="M38.3272 34.9226C37.8133 36.295 38.4007 37.5939 39.4286 37.3243C39.6733 37.2508 40.2852 37.2753 40.7502 37.3488C41.46 37.4958 41.6068 37.6184 41.6068 38.1085C41.6068 38.6967 41.5334 38.7212 40.0405 38.7212C39.0125 38.7212 38.4251 38.6232 38.3517 38.4026C38.3028 38.2556 38.1559 38.2065 38.0336 38.3046C37.9357 38.4026 37.9601 38.6967 38.0825 38.9172C38.3028 39.2358 38.7188 39.3339 40.0405 39.3339H41.7292L41.8026 38.0595L41.8761 36.7851L40.3342 36.7116C38.8657 36.6381 38.7923 36.6136 38.7923 36.0254C38.7923 35.4617 38.8902 35.4127 39.967 35.3392C40.6768 35.2902 41.3131 35.3882 41.5334 35.5598C41.8516 35.8294 41.8761 35.7803 41.8026 35.2902C41.7292 34.7265 41.6313 34.6775 40.1139 34.604C38.7923 34.555 38.4496 34.604 38.3272 34.9226Z" fill="#DE0526"/>
<path d="M2.69238 39.9221C2.69238 40.1181 4.30771 40.1916 8.27259 40.2407C11.3319 40.2407 14.0975 40.2897 14.4402 40.3142C14.7828 40.3387 21.0728 40.4367 28.4641 40.5347C38.205 40.6818 41.8517 40.6573 41.8517 40.4612C41.8517 40.0201 42.1944 40.0446 20.7546 39.824C7.36703 39.677 2.69238 39.7015 2.69238 39.9221Z" fill="#DE0526"/>
<path d="M5.55567 42.5197C6.14306 43.304 6.4857 43.304 5.97174 42.5197C5.75147 42.1766 5.48225 41.9071 5.3354 41.9071C5.21302 41.9071 5.31092 42.1766 5.55567 42.5197Z" fill="#DE0526"/>
<path d="M18.968 42.1522C18.8945 42.2992 18.8945 42.6178 18.968 42.8874C19.1148 43.353 18.9924 43.3776 16.2268 43.4021C14.636 43.4266 13.6815 43.5001 14.0731 43.5491C15.1499 43.6961 15.3702 44.0637 14.587 44.3333C14.2444 44.4804 13.8773 44.7745 13.8038 44.9705C13.608 45.4607 14.122 46.0733 14.7094 46.0733C14.9786 46.0733 15.1744 46.1714 15.1744 46.3184C15.1744 46.4409 15.2968 46.5635 15.4192 46.5635C15.566 46.5635 15.6639 46.1223 15.6639 45.5832C15.6639 44.848 15.7618 44.6029 16.0555 44.6029C16.3737 44.6029 16.4226 44.7745 16.3247 45.4607C16.1534 46.4409 16.4471 46.588 16.8142 45.7547C17.1324 45.044 16.8142 44.3578 16.1534 44.3578C15.8842 44.3578 15.6639 44.1863 15.6639 43.9902C15.6639 43.7206 15.9576 43.6226 16.7897 43.6226H17.94L17.7932 44.4804C17.7198 44.946 17.7687 45.3871 17.8911 45.4852C18.2827 45.7302 18.454 45.3871 18.4051 44.4804C18.3561 43.8432 18.4295 43.6226 18.7232 43.6226C19.0169 43.6226 19.0903 43.9412 19.0903 45.093C19.0903 45.9018 19.1882 46.5635 19.3351 46.5635C19.4819 46.5635 19.5798 45.9018 19.5798 45.093V43.6226H20.4364C21.2196 43.6226 21.2931 43.6716 21.2931 44.3578C21.2931 45.093 20.9504 45.3626 20.7301 44.7745C20.6812 44.6274 20.5588 44.5294 20.4854 44.6029C20.412 44.6764 20.6322 45.1666 20.9504 45.7057L21.5623 46.686L21.4154 45.8773C21.3175 45.3871 21.342 45.093 21.5133 45.093C21.6602 45.093 21.7826 44.7499 21.7826 44.3578C21.7826 43.8432 21.9049 43.6226 22.1741 43.6226C22.4923 43.6226 22.5413 43.8922 22.4678 45.3136C22.4189 46.2449 22.4678 46.9556 22.5902 46.8821C22.6881 46.833 22.7615 47.0291 22.7615 47.3232C22.7615 47.7888 22.6636 47.8378 21.9783 47.6908C21.342 47.5928 21.2686 47.6173 21.6112 47.8133C21.856 47.9604 22.2965 48.0339 22.5902 47.9849C23.1042 47.9114 23.1287 47.7888 23.1287 45.6567V43.4021L21.2931 43.3285C19.7267 43.255 19.4575 43.1815 19.384 42.7894C19.3351 42.5443 19.433 42.2502 19.6288 42.1277C19.8735 41.9561 19.8491 41.9071 19.5309 41.9071C19.3106 41.9071 19.0414 42.0297 18.968 42.1522ZM15.0276 45.1421C14.8318 45.8528 14.7828 45.9018 14.4646 45.7057C13.9752 45.4116 14.1465 44.6029 14.7094 44.6029C15.101 44.6029 15.1744 44.7009 15.0276 45.1421Z" fill="#DE0526"/>
<path d="M29.6142 42.5688L30.1526 43.255L27.852 43.4021C26.6038 43.4756 25.9919 43.5491 26.5059 43.5736C27.4115 43.6226 27.4115 43.6226 27.4115 44.7254C27.4115 45.5342 27.3136 45.8283 27.0444 45.8283C26.8241 45.8283 26.6772 45.6077 26.6772 45.2156C26.6772 44.8725 26.7996 44.6029 26.9709 44.6029C27.1178 44.6029 27.1912 44.5539 27.1178 44.4804C26.8241 44.1863 26.1877 44.7009 26.1877 45.2401C26.1877 45.6567 26.3591 45.8528 26.7996 45.9753C27.1423 46.0488 27.4115 46.2204 27.4115 46.3429C27.4115 46.4654 27.5338 46.5635 27.6562 46.5635C27.8031 46.5635 27.901 46.2939 27.901 45.9753C27.901 45.0931 28.1457 44.6029 28.5618 44.6029C28.8555 44.6029 28.9044 44.799 28.8065 45.5097C28.6597 46.3674 28.6842 46.3919 29.0023 45.9753C29.1981 45.7057 29.3694 45.3626 29.3694 45.2156C29.3694 44.799 28.831 44.3578 28.3415 44.3578C28.0968 44.3578 27.901 44.1863 27.901 43.9902C27.901 43.7207 28.1702 43.6226 28.8799 43.6226H29.8589V45.0931C29.8589 45.9018 29.9568 46.5635 30.1037 46.5635C30.2505 46.5635 30.3484 45.9018 30.3484 45.0931C30.3484 43.7942 30.3974 43.6226 30.8379 43.6226C31.1071 43.6226 31.3274 43.7697 31.3274 43.9657C31.3274 44.1373 31.4743 44.4314 31.6701 44.5784C31.9393 44.799 31.9637 44.7254 31.8658 44.2108C31.768 43.7207 31.8414 43.5981 32.0861 43.6716C32.5022 43.8187 32.5511 44.6029 32.2085 45.0685C31.9882 45.3381 32.0127 45.3871 32.3064 45.2891C32.5267 45.2156 32.6735 44.8725 32.6735 44.4069C32.6735 43.8187 32.7714 43.6226 33.0896 43.6226C33.4567 43.6226 33.5301 43.8432 33.5301 45.0931C33.5301 45.9018 33.628 46.5635 33.7749 46.5635C33.9217 46.5635 34.0196 45.9018 34.0196 45.0931V43.6226H35.121C35.7328 43.6226 36.2223 43.6961 36.2223 43.7942C36.1979 44.2598 35.5126 45.9508 35.3168 45.9508C34.9741 45.9508 34.9496 44.799 35.2923 44.5784C35.537 44.4069 35.5126 44.3578 35.1944 44.3578C34.6804 44.3578 34.3378 45.5097 34.7294 45.9018C34.8762 46.0488 35.4391 46.1959 35.9776 46.2204C37.2258 46.2939 37.6908 45.6322 37.0789 44.7009C36.6139 43.9902 36.7852 43.6226 37.544 43.6226C38.2782 43.6226 38.425 43.8187 38.1803 44.4559C37.9111 45.1666 38.3027 45.8773 38.6698 45.3381C38.7922 45.1421 38.9145 44.6764 38.9145 44.2843C38.9145 43.2795 39.404 43.5001 39.4285 44.5294C39.5019 46.4164 39.5264 46.5635 39.7467 46.5635C39.869 46.5635 39.9669 45.9753 39.9425 45.2646C39.9425 44.5784 40.0648 43.8432 40.1872 43.6716C40.383 43.4511 39.404 43.3776 35.4147 43.3776H30.3729L29.9324 42.6423C29.7121 42.2257 29.4184 41.9071 29.296 41.9071C29.1736 41.9071 29.3205 42.2012 29.6142 42.5688ZM36.9566 45.3871C36.9566 45.9263 36.4915 46.1959 36.1489 45.8528C35.9776 45.6812 35.9776 45.4116 36.1979 44.9215C36.4426 44.3823 36.5405 44.3333 36.7363 44.6274C36.8587 44.799 36.9566 45.1666 36.9566 45.3871Z" fill="#DE0526"/>
<path d="M28.6355 42.6179C28.6355 42.8384 29.3697 43.206 29.5166 43.059C29.5655 43.0345 29.3697 42.8629 29.125 42.6914C28.8558 42.5199 28.6355 42.4953 28.6355 42.6179Z" fill="#DE0526"/>
<path d="M41.6067 42.8873C41.6067 43.0344 41.778 43.353 41.9983 43.549C42.3409 43.9167 42.3899 43.8921 42.292 43.3775C42.2186 42.7893 41.6067 42.3727 41.6067 42.8873Z" fill="#DE0526"/>
<path d="M43.0752 42.9855C43.0752 43.1815 43.2465 43.3776 43.4423 43.4756C43.8584 43.6227 43.8829 43.5737 43.6626 43.0345C43.4668 42.5444 43.0752 42.5199 43.0752 42.9855Z" fill="#DE0526"/>
<path d="M0 43.5491C0 43.9657 0.465017 44.4068 0.709763 44.2598C0.90556 44.1373 0.881086 43.9902 0.63634 43.7206C0.244746 43.353 0 43.2795 0 43.5491Z" fill="#DE0526"/>
<path d="M1.46851 43.7207C1.46851 44.1128 1.90905 44.4804 2.12932 44.2598C2.20274 44.1863 2.08037 43.9657 1.8601 43.7452C1.51746 43.4021 1.46851 43.4021 1.46851 43.7207Z" fill="#DE0526"/>
<path d="M3.30417 43.5491C4.11183 43.7452 4.2342 44.0392 3.72024 44.5539C3.27969 44.995 3.25522 45.093 3.57339 45.5587C3.79366 45.8528 4.1363 46.0733 4.35658 46.0488C4.65027 46.0488 4.6258 45.9753 4.2342 45.8283C3.54891 45.5587 3.52444 45.3136 4.16078 44.897C4.57685 44.6519 4.60132 44.5049 4.40552 44.1128C4.18525 43.6961 4.20973 43.6226 4.67475 43.6226C5.13976 43.6226 5.18871 43.7452 5.13976 44.7745C5.04186 46.4654 5.11529 46.8576 5.38451 46.686C5.53136 46.6125 5.62925 45.8773 5.62925 45.0685C5.62925 43.9412 5.70268 43.6226 5.99637 43.6226C6.19217 43.6226 6.33902 43.6961 6.33902 43.7942C6.21665 44.6274 6.41244 46.5635 6.63271 46.5635C6.77956 46.5635 6.87746 46.1959 6.85298 45.7547C6.75509 43.8922 6.82851 43.6226 7.46485 43.6226C7.95434 43.6226 8.07671 43.7452 8.07671 44.2353C8.07671 44.5784 7.95434 44.848 7.80749 44.848C7.6117 44.848 7.6117 44.9705 7.83197 45.2156C8.34593 45.8283 8.56621 45.6322 8.56621 44.6029C8.56621 44.0638 8.68858 43.6226 8.81095 43.6226C8.9578 43.6226 9.0557 44.2598 9.0557 45.0685C9.0557 45.8773 9.17807 46.6125 9.30044 46.686C9.44729 46.784 9.54519 46.1959 9.54519 45.1176V43.3776L6.19217 43.4021C4.3321 43.4266 3.03495 43.4756 3.30417 43.5491Z" fill="#DE0526"/>
<path d="M31.5724 45.8037C31.8661 46.3674 32.2821 46.6615 32.4779 46.4654C32.6493 46.2939 31.8416 45.3381 31.5234 45.3381C31.401 45.3381 31.4255 45.5587 31.5724 45.8037Z" fill="#DE0526"/>
</svg>
