<svg width="74" height="48" viewBox="0 0 74 48" fill="none" xmlns="http://www.w3.org/2000/svg">
<path d="M36.1246 0.0596967C35.9658 0.158032 34.4392 4.36378 34.4392 4.69661C34.4392 4.81764 34.4997 4.84033 34.8851 4.84033C35.399 4.84033 35.399 4.84033 35.6106 4.19737L35.7618 3.74351L36.7518 3.72082L37.7419 3.69812L37.9157 4.17467C38.014 4.43942 38.1273 4.69661 38.1651 4.742C38.2105 4.80251 38.4221 4.84033 38.7168 4.84033C39.14 4.84033 39.2005 4.8252 39.2005 4.69661C39.2005 4.4243 37.7041 0.309319 37.5227 0.097518C37.432 -0.00838184 36.2833 -0.0386391 36.1246 0.0596967ZM37.1675 2.00372C37.3262 2.44245 37.4623 2.83579 37.4623 2.87361C37.4623 2.919 37.1675 2.94926 36.7367 2.94926C35.8978 2.94926 35.9432 3.08542 36.4117 1.82218C36.5705 1.38345 36.7065 1.0128 36.7065 0.990105C36.7141 0.884205 36.8879 1.26998 37.1675 2.00372Z" fill="#0000FF"/>
<path d="M32.6179 0.24124C32.5046 0.332011 32.5046 0.468169 32.633 1.89026C32.7086 2.74502 32.7691 3.56953 32.7766 3.72082C32.7766 4.12172 32.6179 4.25032 32.1418 4.22006L31.7563 4.19737L31.7715 4.53776C31.7941 4.96892 31.9302 5.06726 32.4668 5.06726C32.9731 5.06726 33.4644 4.85546 33.6533 4.57558C33.8725 4.24275 33.8876 3.8721 33.7667 2.00372L33.6458 0.18829L33.1923 0.165597C32.9051 0.150468 32.6935 0.180726 32.6179 0.24124Z" fill="#0000FF"/>
<path d="M43.5305 0.543965C43.3869 0.733072 42.6463 2.08708 41.9359 3.47135C41.2557 4.7951 41.2254 4.87074 41.3615 4.96908C41.4522 5.03716 41.6487 5.06741 41.883 5.05229L42.2608 5.02959L42.4876 4.56061C42.6841 4.15213 42.7445 4.08406 42.9259 4.08406C43.334 4.08406 44.6717 4.31855 44.7246 4.40176C44.7549 4.44714 44.8002 4.64381 44.8304 4.82536C44.9211 5.44563 44.9665 5.49858 45.4502 5.58179C45.692 5.61961 45.9112 5.6423 45.949 5.61961C46.0396 5.56666 46.0094 5.23383 45.8507 4.38663C45.5938 3.04775 45.0798 0.801151 45.0043 0.702815C44.9362 0.619607 44.1502 0.453193 43.795 0.453193C43.6892 0.453193 43.5683 0.498579 43.5305 0.543965ZM44.3845 2.55607C44.4903 3.06288 44.5735 3.49404 44.5584 3.51673C44.513 3.55456 43.2131 3.35788 43.1602 3.30493C43.13 3.28224 43.3265 2.8662 43.591 2.38209C43.8479 1.90554 44.0898 1.53489 44.12 1.56515C44.1502 1.60297 44.2712 2.0417 44.3845 2.55607Z" fill="#0000FF"/>
<path d="M28.3318 0.710287C28.0749 0.763237 27.8179 0.846445 27.7726 0.89183C27.7272 0.937216 27.6138 1.33812 27.508 1.79198C27.3267 2.61649 26.8052 5.54387 26.8052 5.74054C26.8052 5.82375 26.8959 5.83888 27.2284 5.80106C27.4551 5.77837 27.6894 5.71785 27.7499 5.67247C27.8028 5.62708 27.8708 5.39259 27.901 5.15053C27.9313 4.91604 27.9766 4.67398 28.0144 4.62103C28.0673 4.53026 29.473 4.23525 29.8433 4.23525C29.9265 4.23525 30.0776 4.42436 30.2514 4.73449L30.5311 5.2413L30.9921 5.18835C31.2415 5.16566 31.4833 5.10514 31.5287 5.05976C31.5816 5.00681 31.4682 4.72693 31.1584 4.13691C30.7125 3.28215 29.6544 1.41377 29.3219 0.884266C29.1254 0.57413 29.08 0.566566 28.3318 0.710287ZM29.1102 2.61649C29.3672 3.07035 29.5713 3.46369 29.5561 3.48638C29.5259 3.53933 28.1731 3.74357 28.1353 3.69818C28.0824 3.63011 28.4981 1.66339 28.5585 1.7239C28.5963 1.76172 28.8457 2.16263 29.1102 2.61649Z" fill="#0000FF"/>
<path d="M48.1709 1.6634C47.4378 1.95084 47.007 2.45008 46.7879 3.26703C46.6518 3.7814 46.6518 4.18987 46.7954 4.65886C47.0977 5.6876 48.0575 6.30788 49.6371 6.51211C50.6574 6.64071 50.6347 6.65583 50.9597 5.61953C51.1108 5.12785 51.2544 4.60591 51.2695 4.44706L51.3073 4.16718L50.68 3.97807C50.3324 3.87217 49.8638 3.74358 49.6371 3.69063C49.2668 3.60742 49.2214 3.61499 49.1307 3.74358C49.0703 3.81922 49.0249 3.97807 49.0249 4.09154C49.0249 4.28064 49.0627 4.30334 49.554 4.42437C50.151 4.56809 50.151 4.56809 49.9394 5.21862L49.8109 5.63465H49.433C48.9191 5.62709 48.375 5.34721 48.0802 4.92361C47.8762 4.63617 47.8535 4.53783 47.8535 4.06128C47.8611 3.42588 48.0273 3.0401 48.4505 2.66188C49.0627 2.12482 50.2341 2.26098 51.1637 2.97202C51.3602 3.13087 51.5492 3.2519 51.587 3.2519C51.6625 3.2519 51.8212 2.84343 51.8212 2.63919C51.8212 2.34418 50.9975 1.83738 50.1812 1.62558C49.5766 1.46673 48.6244 1.48185 48.1709 1.6634Z" fill="#0000FF"/>
<path d="M23.6843 1.73913C23.0796 1.84503 21.6588 2.28375 21.5454 2.40478C21.4774 2.4653 21.4472 2.55607 21.4623 2.60145C21.4774 2.64684 21.7797 3.61507 22.1274 4.75728C22.4901 5.92975 22.8076 6.84503 22.868 6.86772C23.0041 6.92067 23.7825 6.67105 23.7825 6.56515C23.7825 6.52732 23.6767 6.13398 23.5482 5.69525C23.4273 5.25652 23.3366 4.85562 23.3593 4.80267C23.3744 4.74972 23.5331 4.68164 23.6994 4.65138C24.115 4.5833 24.3191 4.71946 24.9539 5.49858C25.3847 6.03565 25.4981 6.12642 25.6946 6.12642C26.0573 6.12642 26.5032 5.96757 26.5032 5.83141C26.5032 5.61961 25.4301 4.3715 25.1202 4.21265L24.8255 4.06136L25.0597 3.87982C25.3847 3.62264 25.5208 3.32763 25.5208 2.8889C25.5208 2.03413 24.7574 1.55002 23.6843 1.73913ZM24.2586 2.73005C24.4022 2.91159 24.4249 3.25955 24.3115 3.48648C24.2133 3.66802 23.7296 3.91764 23.3517 3.97816L23.0645 4.02354L22.8907 3.40327C22.8 3.05531 22.732 2.76787 22.7395 2.75274C22.7547 2.74518 22.9512 2.68466 23.1779 2.61658C23.6918 2.47286 24.0772 2.51825 24.2586 2.73005Z" fill="#0000FF"/>
<path d="M53.1134 2.75266C52.9471 2.94934 51.685 6.98867 51.7606 7.08701C51.8664 7.2156 52.5768 7.44253 52.6524 7.36689C52.6902 7.32906 52.8413 6.94328 52.9925 6.50456C53.1436 6.06583 53.2948 5.68761 53.3175 5.65735C53.4006 5.57415 53.9674 5.86915 54.0808 6.0507C54.1337 6.14903 54.2168 6.61802 54.2546 7.10214C54.2924 7.58625 54.3604 8.01742 54.4057 8.07037C54.4813 8.16114 55.1011 8.39563 55.2749 8.39563C55.5092 8.39563 55.3353 6.4743 55.0708 6.11121L54.9121 5.89941H55.222C55.5923 5.89941 56.0609 5.67248 56.2271 5.42286C56.4614 5.06734 56.5219 4.64374 56.3934 4.3336C56.1364 3.72089 55.7283 3.45614 54.2773 2.94934C53.2948 2.60894 53.2343 2.60138 53.1134 2.75266ZM54.9348 4.03859C55.4034 4.3563 55.3882 4.8631 54.9046 5.14298C54.7156 5.24132 54.6476 5.24132 54.1866 5.12029C53.9069 5.04465 53.65 4.96144 53.6122 4.92362C53.582 4.89336 53.6273 4.66643 53.718 4.41681C53.8087 4.17475 53.9145 3.89487 53.9447 3.8041C54.0052 3.63769 54.0128 3.63769 54.3453 3.75115C54.5342 3.81923 54.7987 3.94782 54.9348 4.03859Z" fill="#0000FF"/>
<path d="M18.2351 3.44097C17.9479 3.54687 17.6758 3.66033 17.6229 3.70572C17.4944 3.81162 17.4415 5.2564 17.502 7.12478C17.5322 8.14596 17.5776 8.72085 17.638 8.78136C17.6985 8.84188 17.827 8.81918 18.1444 8.67546L18.5676 8.47879L18.545 7.88877L18.5298 7.30632L19.4368 6.9508L20.3437 6.59528L20.7593 7.04157L21.175 7.49543L21.6511 7.32902C21.9157 7.23824 22.1197 7.12478 22.1197 7.06427C22.1197 6.85247 18.9833 3.2443 18.8019 3.25186C18.7792 3.25942 18.5223 3.34263 18.2351 3.44097ZM19.603 5.65731C19.7542 5.83129 19.86 5.99014 19.8449 6.00526C19.792 6.04309 18.5223 6.50451 18.4694 6.50451C18.4391 6.50451 18.4165 6.02039 18.4165 5.42281L18.424 4.34868L18.8775 4.84036C19.1269 5.11268 19.4594 5.47576 19.603 5.65731Z" fill="#0000FF"/>
<path d="M14.5696 5.01444C13.9499 5.26406 13.9423 5.30945 14.3882 6.21716L14.7661 6.99629L13.8667 7.47284C13.3679 7.73002 12.9371 7.92669 12.8993 7.904C12.8616 7.88131 12.6726 7.55604 12.4761 7.17783C12.2721 6.80718 12.0756 6.46678 12.0302 6.42896C11.932 6.34576 11.2442 6.65589 11.0855 6.845C11.0175 6.92821 11.2216 7.35181 12.1209 8.93275C12.7331 10.022 13.2923 10.9297 13.3452 10.9524C13.4964 11.0054 14.1388 10.6423 14.169 10.491C14.1841 10.4229 13.9876 9.99175 13.7382 9.53032L13.2848 8.69069L14.1917 8.24439C14.6829 7.99477 15.1062 7.79054 15.1288 7.79054C15.1515 7.79054 15.3556 8.18388 15.5747 8.66043C15.8846 9.3034 16.0206 9.53032 16.1264 9.53032C16.3003 9.53032 16.8671 9.26557 16.9351 9.15967C16.9805 9.08403 15.1288 4.95393 15.023 4.88585C14.9928 4.86315 14.7887 4.92367 14.5696 5.01444Z" fill="#0000FF"/>
<path d="M58.6308 5.5212C57.5727 6.45161 55.6758 8.36537 55.6758 8.50153C55.6758 8.62256 56.235 8.92513 56.4542 8.92513C56.4996 8.92513 56.7187 8.75115 56.9379 8.53179L57.3385 8.13844L58.2454 8.58474L59.1523 9.03103L59.1372 9.64374L59.1145 10.2489L59.5528 10.4758C59.8778 10.6498 59.9987 10.68 60.0441 10.612C60.1197 10.4834 60.3464 8.63012 60.4749 6.99624C60.5504 6.0507 60.558 5.68761 60.49 5.61197C60.4068 5.50607 59.6813 5.12029 59.4017 5.03708C59.2732 4.9917 59.1145 5.09003 58.6308 5.5212ZM59.3715 7.19291C59.3261 7.75266 59.2732 8.21409 59.2656 8.22922C59.2354 8.26704 57.9431 7.60894 57.9431 7.55599C57.9431 7.48035 59.3866 6.11121 59.4319 6.14903C59.447 6.17173 59.4244 6.64071 59.3715 7.19291Z" fill="#0000FF"/>
<path d="M62.6591 7.39709C62.062 7.67697 61.8126 8.31993 62.0544 8.95533C62.1225 9.13688 62.3643 9.53022 62.5986 9.84036C62.8253 10.1429 63.0294 10.4758 63.0521 10.5665C63.1276 10.854 63.0218 11.096 62.7875 11.1944C62.4172 11.3457 62.062 11.1792 61.4498 10.5514C61.1551 10.2488 60.883 10.0219 60.8377 10.0446C60.747 10.1051 60.5127 10.5438 60.5127 10.6573C60.5127 10.8237 61.2987 11.565 61.7144 11.7844C62.7649 12.3517 63.7398 12.2004 64.1404 11.4213C64.42 10.8767 64.2915 10.3623 63.6642 9.54535C63.105 8.81918 63.0294 8.5393 63.309 8.28211C63.6038 8.0098 64.2915 8.33506 64.745 8.97046C64.8734 9.15957 65.0246 9.29573 65.0699 9.2806C65.1228 9.26547 65.2362 9.14444 65.3269 9.00828C65.478 8.78136 65.4856 8.73597 65.3874 8.55443C65.1153 8.01736 64.0572 7.36683 63.3392 7.29119C63.0672 7.2685 62.8858 7.29119 62.6591 7.39709Z" fill="#0000FF"/>
<path d="M33.9859 7.79054C21.2966 8.52428 10.7764 12.9267 6.51392 19.2883C4.95705 21.6181 4.34488 24.4017 4.85124 26.898C6.4988 34.9842 18.2509 41.3079 33.4568 42.2837C35.0364 42.3896 39.3291 42.3896 40.8633 42.2837C51.6329 41.5727 60.7549 38.252 65.8034 33.2066C71.6984 27.3216 70.6857 20.075 63.2263 14.727C58.0569 11.0205 50.5673 8.63018 41.8458 7.90401C40.168 7.76028 35.6183 7.69977 33.9859 7.79054ZM38.46 8.60749C39.0721 8.91006 39.7523 9.61354 40.2814 10.491C40.9767 11.6559 41.6871 13.6756 42.1027 15.6952C42.2161 16.2323 42.3219 16.7164 42.337 16.7618C42.3521 16.8147 42.7678 16.7088 43.448 16.4744C47.8314 14.9691 51.512 14.4093 53.2729 14.9691C54.3234 15.3095 54.8827 15.9978 54.8751 16.9812C54.8676 18.0553 54.2705 19.0387 52.623 20.6952C51.4213 21.8904 50.5446 22.6241 48.8895 23.8117C48.3378 24.2051 47.8919 24.5379 47.907 24.5455C47.9221 24.5606 48.436 24.9237 49.0482 25.37C51.8823 27.3896 53.6886 29.1975 54.3688 30.6877C54.5124 30.9978 54.5804 31.2928 54.603 31.7088C54.6333 32.2308 54.6182 32.3442 54.4368 32.7073C53.9682 33.6604 52.8799 34.1143 51.0359 34.1143C49.1162 34.1143 45.8362 33.4562 43.1003 32.5258C42.73 32.4048 42.4126 32.314 42.3899 32.3291C42.3748 32.3518 42.2615 32.8284 42.1481 33.3957C41.3243 37.3291 40.0244 39.901 38.46 40.6725C38.0821 40.8616 37.9461 40.8843 37.3112 40.8843C36.6537 40.8843 36.5555 40.8616 36.1851 40.6574C34.6283 39.8026 33.3661 37.2913 32.5575 33.4713C32.4366 32.904 32.3232 32.4199 32.3005 32.3972C32.2778 32.3821 31.6354 32.5636 30.8721 32.8132C25.6498 34.5228 22.1506 34.7951 20.76 33.6075C19.8304 32.8132 19.8607 31.5727 20.8507 30.0901C21.6896 28.8269 23.768 26.9055 25.9823 25.3397L26.7759 24.7724L25.8539 24.1294C21.2815 20.9449 19.2561 18.4335 19.7927 16.6105C19.9287 16.1567 20.6089 15.4986 21.1606 15.2943C22.4529 14.8102 24.758 14.901 27.5997 15.5515C28.6502 15.7936 30.5396 16.3306 31.5448 16.671C32.3232 16.9358 32.3232 16.9358 32.3534 16.7694C33.0563 13.1461 34.0236 10.665 35.2253 9.38661C35.7014 8.88736 35.9357 8.72095 36.4723 8.49402C37.092 8.23684 37.7873 8.27466 38.46 8.60749Z" fill="#E80000"/>
<path d="M36.7742 10.1354C35.6934 10.8465 34.5749 13.5242 33.9627 16.8828L33.8569 17.4652L34.8092 17.8435C35.3307 18.0477 36.1242 18.3654 36.5626 18.5545L37.3637 18.8873L38.5275 18.3881C39.1699 18.1082 39.9408 17.7829 40.2431 17.6619C40.6588 17.4955 40.7873 17.4123 40.7873 17.2988C40.7873 17.0189 40.3943 15.2489 40.1373 14.3336C39.6234 12.5484 38.9886 11.2247 38.3008 10.491C37.7038 9.848 37.3334 9.76479 36.7742 10.1354Z" fill="#E80000"/>
<path d="M50.1593 16.4138C49.207 16.5499 47.6804 16.8676 46.5619 17.1778C45.3904 17.4955 42.7604 18.3578 42.6621 18.4486C42.6092 18.4939 42.6621 19.1747 42.8738 21.2171L42.9115 21.5953L43.6749 22.0113C44.0981 22.2383 44.8841 22.6921 45.4207 23.0098L46.3956 23.5923L46.9775 23.2065C50.3407 20.9372 52.7818 18.6377 53.2201 17.3139C53.3335 16.9811 53.3335 16.9206 53.2353 16.7693C53.1748 16.671 52.9934 16.5499 52.8347 16.497C52.4719 16.3759 50.8244 16.323 50.1593 16.4138Z" fill="#E80000"/>
<path d="M22.2261 16.6408C21.6895 16.7467 21.372 16.9207 21.3191 17.1249C21.1226 17.9343 22.6795 19.7724 25.2189 21.7013C26.3752 22.5863 28.0908 23.7512 28.2268 23.7512C28.2873 23.7512 28.6803 23.5394 29.1035 23.2747C29.5192 23.0099 30.2976 22.5485 30.8266 22.2459L31.7789 21.6937L31.8318 21.0432C31.862 20.6801 31.93 19.9766 31.9829 19.4774C32.0358 18.9781 32.0585 18.547 32.0358 18.5167C31.9603 18.4486 29.5192 17.6847 28.4687 17.4123C25.8386 16.7164 23.3899 16.4139 22.2261 16.6408Z" fill="#E80000"/>
<path d="M40.1526 19.4169L39.3289 19.7648L40.266 20.2414C40.7799 20.4986 41.2107 20.7028 41.2183 20.6952C41.256 20.665 41.0596 19.0613 41.0218 19.0613C40.9991 19.0689 40.6061 19.2278 40.1526 19.4169Z" fill="#E80000"/>
<path d="M33.577 19.5529C33.5543 19.7798 33.5089 20.1581 33.4863 20.3926L33.4409 20.8086L34.3932 20.332C34.9147 20.0749 35.3454 19.8404 35.3454 19.8101C35.3454 19.7647 33.8037 19.1369 33.6903 19.1369C33.6525 19.1369 33.6072 19.326 33.577 19.5529Z" fill="#E80000"/>
<path d="M35.3309 21.6483L33.3432 22.6543L33.3205 24.674L33.3054 26.7012L34.1292 27.1173C34.5827 27.3442 35.4745 27.7678 36.1093 28.0628L37.2581 28.5999L38.3993 28.0552C39.7899 27.3971 41.256 26.6256 41.3316 26.5197C41.3996 26.4213 41.4072 22.9569 41.3467 22.7073C41.3089 22.5711 41.0369 22.4047 40.1904 21.9811C39.1097 21.4365 37.4319 20.6498 37.3487 20.6498C37.3336 20.6498 36.4192 21.1036 35.3309 21.6483ZM38.301 22.8586C38.7696 23.0704 39.2608 23.5166 39.48 23.9176C39.6689 24.2655 39.6689 25.2791 39.48 25.6271C38.9434 26.618 37.5452 27.1551 36.3663 26.8222C34.0914 26.1717 33.9856 23.5469 36.2 22.7527C36.7744 22.5484 37.7342 22.5938 38.301 22.8586Z" fill="#E80000"/>
<path d="M42.9792 24.5454V25.6498L43.1531 25.559C43.4932 25.3775 44.8687 24.5681 44.8687 24.5454C44.8687 24.5303 44.4681 24.2882 43.9844 24.0159C43.4932 23.736 43.0699 23.4864 43.0397 23.4713C43.0019 23.4561 42.9792 23.9327 42.9792 24.5454Z" fill="#E80000"/>
<path d="M30.736 24.1293C30.2599 24.4168 29.8593 24.6815 29.8518 24.7118C29.8215 24.7874 29.8593 24.8026 30.9098 25.4002L31.7185 25.8616V24.7345C31.7185 24.1067 31.6958 23.5998 31.6656 23.6074C31.6278 23.6074 31.2121 23.8419 30.736 24.1293Z" fill="#E80000"/>
<path d="M46.002 25.7253C45.8131 25.8463 45.0422 26.3078 44.2864 26.7465L42.9109 27.5407L42.8656 28.0476C42.8429 28.3274 42.7749 29.0309 42.7144 29.6134C42.654 30.1958 42.6237 30.6799 42.6389 30.7026C42.722 30.7783 45.4049 31.5801 46.4932 31.8448C48.496 32.3365 49.4861 32.4802 50.9522 32.4878C52.1766 32.4878 52.2521 32.4802 52.6149 32.2987C52.9399 32.1398 52.9928 32.0718 53.0155 31.86C53.1062 30.9371 51.2092 28.8796 48.3826 26.8448C47.506 26.2094 46.5537 25.5665 46.4328 25.5286C46.3874 25.5135 46.1909 25.6043 46.002 25.7253Z" fill="#E80000"/>
<path d="M27.8642 25.9599C24.7127 28.1384 22.6192 30.0522 21.8937 31.4289C21.6367 31.9206 21.6065 32.2231 21.803 32.3895C22.5437 33.0325 25.4004 32.7678 28.9979 31.7315C30.3734 31.3305 31.9378 30.8162 32.036 30.7178C32.0587 30.6951 32.036 30.2262 31.9831 29.6891C31.9227 29.1445 31.8546 28.4788 31.832 28.1989L31.7866 27.6921L30.978 27.261C30.5321 27.0265 29.7461 26.5802 29.2397 26.27C28.7258 25.9675 28.2799 25.7178 28.2572 25.7178C28.227 25.7254 28.0532 25.8313 27.8642 25.9599Z" fill="#E80000"/>
<path d="M40.1982 28.9402C39.6843 29.1974 39.2988 29.4319 39.3291 29.447C39.4424 29.5227 40.9388 30.1051 41.0068 30.1051C41.0446 30.1051 41.09 29.916 41.1202 29.6891C41.1429 29.4621 41.1882 29.0839 41.2109 28.857C41.2411 28.6301 41.226 28.4485 41.1958 28.4561C41.158 28.4637 40.7121 28.6755 40.1982 28.9402Z" fill="#E80000"/>
<path d="M33.4871 28.9856C33.5173 29.205 33.5551 29.5453 33.5778 29.742C33.6004 29.9463 33.6458 30.1051 33.676 30.1051C33.744 30.1051 35.2026 29.5151 35.248 29.4697C35.2782 29.447 33.5626 28.5922 33.4795 28.5922C33.4568 28.5922 33.4644 28.7738 33.4871 28.9856Z" fill="#E80000"/>
<path d="M36.6687 30.5893C36.3816 30.7254 35.6485 31.0356 35.0439 31.2776C34.4392 31.5197 33.9253 31.7391 33.8951 31.7618C33.8649 31.7845 33.9404 32.2913 34.0614 32.8888C34.8398 36.7391 36.1624 39.3336 37.3489 39.3336C38.5733 39.3336 39.9941 36.4062 40.7423 32.3518C40.8405 31.8071 40.833 31.7542 40.7196 31.7164C40.6516 31.6937 39.8883 31.3835 39.0116 31.0356C38.1425 30.6876 37.3716 30.3851 37.3111 30.3699C37.2507 30.3548 36.9635 30.4531 36.6687 30.5893Z" fill="#E80000"/>
<path d="M8.0175 8.68306C7.33732 9.12935 7.35243 9.06884 7.5716 10.143C7.84368 11.4818 8.44829 13.9402 8.52386 14.031C8.607 14.1142 9.03778 13.9024 9.26451 13.6604C9.41566 13.5015 9.41566 13.4939 9.27963 12.9493L9.13603 12.4047L9.9976 11.8298L10.8516 11.2549L11.3202 11.618L11.7888 11.9735L12.1213 11.792C12.5899 11.5348 12.7183 11.3835 12.5974 11.2322C12.2724 10.8389 8.84128 8.39561 8.61456 8.39561C8.53142 8.39561 8.26691 8.52421 8.0175 8.68306ZM9.36276 10.1505C9.76331 10.4304 10.1185 10.6952 10.1412 10.7405C10.179 10.8011 8.96976 11.6785 8.91686 11.6256C8.9093 11.6104 8.81105 11.1944 8.70525 10.6952C8.59944 10.2035 8.49363 9.73449 8.47096 9.65129C8.41806 9.47731 8.4105 9.47731 9.36276 10.1505Z" fill="#0000FF"/>
<path d="M66.5444 9.50763C66.1892 9.90854 64.1411 13.0175 64.1411 13.1461C64.1411 13.2293 64.2318 13.3579 64.3527 13.4259C64.4661 13.5016 65.0102 13.9025 65.5695 14.3185L66.5822 15.075L66.8014 14.8405C66.9148 14.7043 67.013 14.5606 67.013 14.5228C67.013 14.4849 66.6502 14.1748 66.2043 13.8344C65.7509 13.5016 65.3957 13.1914 65.4032 13.1536C65.4184 13.1158 65.5846 12.8662 65.7811 12.5939C66.0003 12.2837 66.159 12.1249 66.2119 12.1703C67.149 12.8813 67.542 13.1612 67.6025 13.1612C67.7083 13.1612 67.9955 12.8208 67.9955 12.6846C67.9955 12.6166 67.6932 12.3367 67.3153 12.0568C66.945 11.7769 66.6351 11.5197 66.6351 11.4819C66.6351 11.3911 67.1868 10.5969 67.2549 10.5893C67.2775 10.5893 67.663 10.8616 68.1164 11.202C68.5623 11.5349 68.9704 11.8299 69.0158 11.8526C69.1291 11.8904 69.4314 11.5273 69.4314 11.3533C69.4239 11.2247 69.2123 11.0507 67.8217 10.0296C67.3304 9.67404 66.8619 9.37904 66.7938 9.37904C66.7183 9.37904 66.6049 9.43955 66.5444 9.50763Z" fill="#0000FF"/>
<path d="M4.46548 11.2927C3.68705 11.8903 3.67193 11.9206 3.93645 12.9493C4.06493 13.4183 4.26898 14.1747 4.40502 14.6361C4.54106 15.09 4.63931 15.4758 4.63175 15.4909C4.61663 15.4985 4.30677 15.3699 3.93645 15.2035C2.25866 14.4243 1.48778 14.1293 1.29884 14.1747C1.01921 14.2428 0.0593894 15.0976 0.00648608 15.3245C-0.0388596 15.506 0.11985 15.6876 1.57847 17.1475L3.20336 18.7738L3.48299 18.5317C4.01958 18.0552 4.06493 18.146 2.56852 16.5877C1.70695 15.6876 1.29128 15.2035 1.4122 15.2413C1.69183 15.332 3.64926 16.2095 4.34456 16.5575C4.68465 16.7239 5.0323 16.8676 5.11544 16.8676C5.30438 16.8676 5.8712 16.3608 5.8712 16.1868C5.8712 16.1187 5.80318 15.8615 5.72005 15.6119C5.46309 14.8706 4.72244 12.2383 4.76023 12.208C4.7829 12.1853 5.31949 12.8358 5.95433 13.6452C6.59673 14.4546 7.17111 15.1202 7.23913 15.1278C7.30715 15.1278 7.5112 14.9992 7.69258 14.8328C7.94954 14.6059 8.00245 14.5227 7.94199 14.4395C7.89664 14.3789 7.30715 13.5998 6.62696 12.7072C5.38751 11.0658 5.23636 10.8918 5.07009 10.8918C5.02474 10.8918 4.74511 11.0734 4.46548 11.2927Z" fill="#0000FF"/>
<path d="M68.8413 13.9252C67.6624 15.3548 67.413 15.6952 67.481 15.8011C67.6019 15.9978 68.078 16.3306 68.1687 16.2928C68.2519 16.255 68.6978 15.7482 70.0279 14.1521C70.368 13.7512 70.4965 13.6377 70.4662 13.7739C70.436 13.8798 70.368 14.3185 70.3 14.7572C70.2395 15.1884 70.0959 16.0205 69.9901 16.6029C69.8843 17.1778 69.8163 17.73 69.839 17.8132C69.8843 18.0023 70.5872 18.6831 70.7308 18.6831C70.7837 18.6831 71.5545 17.9569 72.4463 17.0643C73.8898 15.6196 74.0485 15.438 73.973 15.2943C73.8672 15.0976 73.4515 14.7497 73.323 14.7497C73.2323 14.7497 71.94 16.028 71.2296 16.8299L70.9575 17.1249L71.1011 16.4895C71.3883 15.1808 71.6377 13.3578 71.5545 13.146C71.4638 12.904 70.6098 12.1778 70.4209 12.1778C70.3302 12.1778 69.7558 12.8132 68.8413 13.9252Z" fill="#0000FF"/>
<path d="M2.78767 33.3654C2.10748 33.9933 1.57089 34.5455 1.58601 34.5909C1.60112 34.6362 1.73716 34.7724 1.88831 34.8934L2.16038 35.1204L2.48536 34.8329C2.66674 34.6741 3.23357 34.137 3.74748 33.6453L4.68463 32.7527L4.405 32.488C4.24629 32.3443 4.10269 32.2232 4.07246 32.2232C4.04223 32.2232 3.46785 32.7376 2.78767 33.3654Z" fill="#0000FF"/>
<path d="M69.6206 32.4577C69.477 32.5863 69.3561 32.7301 69.3561 32.783C69.3561 32.8284 69.4543 33.1764 69.5752 33.547C69.6961 33.9252 69.7868 34.2354 69.7793 34.2429C69.7717 34.2505 69.409 34.1446 68.9782 34.0009C68.1468 33.7361 68.1317 33.7361 67.7312 34.0689C67.58 34.19 67.5271 34.2807 67.58 34.3261C67.6254 34.3715 68.1695 34.5455 68.7892 34.7195L69.9229 35.0372L70.3839 35.491C70.8903 35.9903 70.9432 35.9903 71.3135 35.5969L71.5024 35.4003L71.0414 34.9237C70.6333 34.5001 70.5728 34.4018 70.4595 33.9252C70.195 32.8208 70.0211 32.2233 69.9531 32.2233C69.9229 32.2233 69.7717 32.3292 69.6206 32.4577Z" fill="#0000FF"/>
<path d="M4.07282 34.5908L2.9165 35.7557L3.18858 35.9902C3.33217 36.1263 3.49088 36.2322 3.52867 36.2322C3.56646 36.2322 3.97457 35.8237 4.44314 35.3245C4.91171 34.8253 5.30471 34.4243 5.31227 34.4395C5.31983 34.447 5.28204 34.6664 5.22913 34.9312C5.04775 35.7935 4.88148 37.1399 4.92683 37.2912C4.97973 37.4652 5.53144 37.8964 5.69015 37.8964C5.7884 37.8964 7.91209 35.506 7.91209 35.4001C7.91209 35.3169 7.50398 35.0219 7.39817 35.0219C7.35283 35.0219 6.96739 35.4153 6.5366 35.8843C6.11338 36.3608 5.75817 36.7466 5.75061 36.739C5.74305 36.7315 5.8413 36.1263 5.96222 35.4001L6.18895 34.084L5.8413 33.7587C5.65992 33.5771 5.44075 33.4334 5.36517 33.4334C5.2896 33.4334 4.71522 33.9478 4.07282 34.5908Z" fill="#0000FF"/>
<path d="M66.6644 34.9462C65.1378 35.7027 64.7146 36.9508 65.6291 37.9719C66.2261 38.6376 66.929 38.7284 67.9039 38.2745C68.4178 38.0325 69.355 37.1777 69.355 36.9508C69.355 36.7844 68.3725 35.7027 68.2138 35.7027C68.1533 35.7027 67.8208 35.9069 67.4807 36.1641C66.9365 36.5726 66.8761 36.6406 66.9441 36.7692C67.0726 37.0188 67.2162 37.0113 67.5714 36.7617L67.9039 36.5196L68.1684 36.807C68.4783 37.1474 68.4556 37.2306 67.9946 37.5559C67.5487 37.866 66.929 37.9039 66.5586 37.6542C65.4779 36.9205 65.8936 35.7405 67.4127 35.2488C67.7301 35.1505 67.7679 35.0067 67.526 34.8403C67.2917 34.6739 67.1784 34.689 66.6644 34.9462Z" fill="#0000FF"/>
<path d="M8.24456 36.2701C8.12363 36.3382 7.95737 36.4894 7.88179 36.618C7.68529 36.9509 7.76087 37.3366 8.13119 37.8813C8.59221 38.5621 8.51663 38.9554 7.94981 38.8495C7.68529 38.7966 7.19405 38.3805 6.92197 37.972L6.80105 37.7981L6.64234 37.9569C6.55165 38.0477 6.47607 38.1838 6.47607 38.2595C6.47607 38.494 6.96732 38.9932 7.43589 39.2353C8.22188 39.6513 8.77359 39.6286 9.15903 39.1748C9.44622 38.8268 9.41599 38.4789 9.05322 37.9191C8.59976 37.2081 8.57709 37.1627 8.66778 36.9887C8.83405 36.6786 9.41599 36.8601 9.73341 37.3215C9.94502 37.6392 10.0584 37.6619 10.2171 37.4123C10.3607 37.2005 10.3078 37.0643 9.97525 36.7466C9.46133 36.2625 8.6829 36.0507 8.24456 36.2701Z" fill="#0000FF"/>
<path d="M63.1192 37.3895C62.114 37.7224 61.4187 38.4788 61.4187 39.2428C61.4187 39.8933 62.1442 40.8237 62.7791 40.9977C63.2023 41.1112 63.5877 41.0355 64.2075 40.7254C65.0917 40.2867 65.5905 39.5605 65.4545 38.9327C65.3411 38.388 64.8347 37.7224 64.3435 37.4727C64.0412 37.3139 63.4744 37.2761 63.1192 37.3895ZM63.7087 38.0779C63.8447 38.1308 64.0865 38.3275 64.2377 38.5091C64.8574 39.2277 64.7667 39.795 63.9732 40.1883C63.3308 40.5136 62.9227 40.3699 62.4692 39.6437C62.0611 39.0083 62.2047 38.4637 62.8698 38.1308C63.2476 37.9417 63.3761 37.9342 63.7087 38.0779Z" fill="#0000FF"/>
<path d="M10.6323 37.5257C10.5038 37.7527 10.5718 37.8586 11.0026 38.1006C11.2142 38.2141 11.388 38.3276 11.388 38.3503C11.388 38.3729 11.0328 38.9025 10.5945 39.5152C10.1637 40.1354 9.82361 40.6725 9.84629 40.7103C9.92186 40.8238 10.4811 41.081 10.5643 41.0356C10.602 41.0053 10.9497 40.5212 11.3276 39.9539C11.7055 39.3866 12.038 38.8873 12.0758 38.8495C12.1136 38.8117 12.3327 38.8798 12.5973 39.0235C13.0432 39.2655 13.0658 39.2655 13.2094 39.1369C13.4286 38.9403 13.3833 38.8268 12.9978 38.6074C12.7938 38.494 12.2421 38.1687 11.7584 37.8813C11.2747 37.6014 10.8439 37.3669 10.7985 37.3669C10.7532 37.3669 10.6776 37.435 10.6323 37.5257Z" fill="#0000FF"/>
<path d="M13.6332 39.3864C12.1367 41.7692 12.0461 41.9205 12.1519 41.9886C12.3862 42.1474 12.6733 42.2836 12.764 42.2836C12.8547 42.2836 14.4191 39.7495 14.4721 39.515C14.4947 39.4091 14.0715 39.1066 13.9052 39.1066C13.8523 39.1066 13.7314 39.2352 13.6332 39.3864Z" fill="#0000FF"/>
<path d="M59.0233 39.6361C58.8873 39.7193 58.7739 39.8176 58.7739 39.8555C58.7739 39.9992 60.3081 42.6013 60.4215 42.6391C60.5878 42.7072 62.4016 41.7465 62.4016 41.5953C62.4016 41.5272 62.3336 41.4137 62.258 41.3456C62.1144 41.217 62.0842 41.2246 61.4947 41.5423C61.1546 41.7163 60.8598 41.8297 60.8372 41.7919C60.7011 41.4515 59.4617 39.5151 59.371 39.4999C59.3105 39.4924 59.1518 39.5529 59.0233 39.6361Z" fill="#0000FF"/>
<path d="M14.8797 39.8026C14.6832 39.9993 14.7815 40.1581 15.2425 40.3926C15.6733 40.612 15.6959 40.6347 15.6128 40.7935C15.5599 40.8843 15.2727 41.4138 14.9628 41.966C14.6605 42.5106 14.4111 42.9948 14.4111 43.0401C14.4111 43.1158 14.7059 43.2898 14.9931 43.373C15.1367 43.4184 15.2122 43.3125 15.7866 42.2156C16.1343 41.5424 16.4517 40.9978 16.497 40.9978C16.5424 40.9978 16.7691 41.081 17.0034 41.1793C17.3964 41.3609 17.4266 41.3609 17.54 41.2323C17.7743 40.9751 17.6836 40.8768 16.9278 40.5439C16.5197 40.3699 15.9604 40.1052 15.6808 39.969C15.1215 39.6892 15.0157 39.6665 14.8797 39.8026Z" fill="#0000FF"/>
<path d="M56.6056 40.6952C55.7365 40.9826 55.147 41.6256 55.147 42.2988C55.147 42.6619 55.3737 43.267 55.6458 43.6225C56.1068 44.2277 56.9835 44.3336 57.9508 43.8949C59.1298 43.3578 59.4473 42.4728 58.8275 41.444C58.3363 40.6195 57.5956 40.3699 56.6056 40.6952ZM57.3916 41.2322C57.5049 41.2776 57.6863 41.3835 57.7846 41.4743C57.9962 41.671 58.3212 42.329 58.3212 42.5711C58.3212 43.267 57.18 43.7965 56.6056 43.3729C56.3184 43.1536 55.9783 42.4879 55.9783 42.1248C55.9783 41.7617 56.2655 41.4138 56.6963 41.2625C57.0666 41.1339 57.1271 41.1263 57.3916 41.2322Z" fill="#0000FF"/>
<path d="M18.1372 41.1716C18.107 41.2246 17.8651 41.7011 17.6082 42.2382C17.0716 43.3501 17.0187 43.6754 17.3059 44.1066C17.5326 44.447 18.3639 44.8706 18.9081 44.916C19.9359 44.9992 20.1626 44.8176 20.7143 43.4031C20.9486 42.8206 21.1376 42.2911 21.1376 42.2458C21.1376 42.1474 20.7597 41.981 20.5405 41.981C20.4574 41.981 20.2911 42.2911 20.0039 42.9871C19.7772 43.5317 19.5202 44.0612 19.422 44.152C19.0063 44.5756 17.9634 44.1822 17.9634 43.5998C17.9634 43.509 18.1674 42.9871 18.4244 42.4349C18.9232 41.338 18.9232 41.3229 18.4395 41.1641C18.2581 41.1035 18.1825 41.1035 18.1372 41.1716Z" fill="#0000FF"/>
<path d="M53.6357 41.8827C53.341 41.9962 53.341 42.0491 53.6886 42.9114C53.8775 43.3804 54.074 43.8494 54.1345 43.9629C54.195 44.0839 54.2252 44.1747 54.2101 44.1747C54.1874 44.1747 53.6735 43.7965 53.0613 43.335C52.0259 42.5484 51.9352 42.503 51.6934 42.5484C51.2928 42.624 51.0661 42.7223 51.0208 42.8509C50.9754 42.9493 51.837 45.6195 51.9806 45.854C52.0259 45.922 52.1166 45.9145 52.3434 45.854C52.5096 45.801 52.6608 45.7329 52.6834 45.7027C52.6986 45.6724 52.5474 45.1883 52.3434 44.6285C51.8219 43.1989 51.837 43.2594 52.1317 43.5393C52.2753 43.6679 52.8119 44.0915 53.3258 44.4773C54.1647 45.0975 54.2932 45.1656 54.5199 45.1353C54.8978 45.0748 55.185 44.9084 55.2001 44.742C55.2152 44.6588 54.9583 43.978 54.6333 43.2291C54.0287 41.8373 53.9682 41.7541 53.6357 41.8827Z" fill="#0000FF"/>
<path d="M21.5984 42.4955C21.4473 42.783 21.5002 42.8586 21.9688 43.0023C22.2257 43.078 22.4449 43.1612 22.46 43.1915C22.4751 43.2217 22.2937 43.8042 22.0443 44.485C21.6513 45.5969 21.6136 45.7331 21.7269 45.8163C21.8856 45.9449 22.3391 46.0281 22.4147 45.9449C22.4524 45.907 22.6565 45.3322 22.8757 44.6665C23.0948 44.0008 23.2838 43.4486 23.2913 43.4335C23.2989 43.4184 23.5407 43.4713 23.8204 43.5394C24.3645 43.6756 24.4628 43.6453 24.4628 43.3049C24.4628 43.1688 24.3041 43.1007 23.2007 42.783C22.4978 42.5863 21.8781 42.4048 21.8025 42.3821C21.7269 42.3594 21.6438 42.4048 21.5984 42.4955Z" fill="#0000FF"/>
<path d="M49.5534 43.1233C49.4552 43.1611 49.3569 43.2065 49.3418 43.2217C49.3267 43.2368 49.3947 43.5091 49.4854 43.8344C49.6214 44.2958 49.6365 44.4244 49.561 44.4773C49.4249 44.5605 48.2686 44.8026 48.2233 44.7572C48.2006 44.7421 48.1175 44.4622 48.0268 44.1369L47.8681 43.5545L47.5658 43.5923C47.3995 43.615 47.2332 43.6679 47.1879 43.7133C47.1274 43.7739 47.203 44.1975 47.4373 45.1732C47.8832 47.0416 47.8303 46.9282 48.2006 46.8752C48.6692 46.8147 48.6918 46.7542 48.5331 46.0885C48.45 45.7633 48.382 45.4683 48.382 45.4304C48.382 45.3699 49.7877 44.9917 49.8406 45.0371C49.8482 45.0522 49.9389 45.3397 50.0447 45.6876C50.1505 46.0356 50.2487 46.3306 50.2638 46.3533C50.3243 46.4062 50.8004 46.3003 50.9365 46.1944C51.0574 46.1112 51.0271 45.9751 50.5888 44.5908C50.1429 43.1914 50.0976 43.0779 49.9237 43.0628C49.8255 43.0552 49.6592 43.0779 49.5534 43.1233Z" fill="#0000FF"/>
<path d="M24.9693 43.3956C24.8483 43.5922 24.0926 46.4062 24.1455 46.4591C24.2437 46.5574 26.3372 46.9962 26.4732 46.9432C26.5488 46.913 26.579 46.8298 26.5639 46.6936C26.5412 46.4894 26.5034 46.4742 25.8459 46.3305C25.4681 46.2473 25.128 46.1565 25.1053 46.1338C25.0675 46.0884 25.1431 45.6648 25.2564 45.332C25.2791 45.2715 25.4529 45.2866 25.914 45.385C26.2616 45.4682 26.5639 45.506 26.5941 45.4757C26.6244 45.4455 26.6622 45.332 26.6697 45.2337C26.6924 45.0521 26.6546 45.037 26.0651 44.9009C25.3698 44.7344 25.3698 44.7344 25.5814 44.1671L25.657 43.9704L26.3221 44.1142C26.6848 44.1898 27.0249 44.2428 27.0854 44.2201C27.1383 44.1974 27.1836 44.0839 27.1836 43.9629C27.1836 43.7511 27.1836 43.7435 26.2238 43.5468C25.196 43.3275 25.0222 43.3124 24.9693 43.3956Z" fill="#0000FF"/>
<path d="M44.9516 44.0764C44.5132 44.2352 44.0673 44.6891 43.954 45.0976C43.7348 45.9221 44.0673 46.8374 44.7173 47.1853C45.0196 47.3442 45.133 47.3593 45.6998 47.3366C46.5614 47.2912 47.0828 47.0492 47.1206 46.6785C47.1584 46.2927 47.045 46.2473 46.6823 46.4894C46.2288 46.792 45.5335 46.8374 45.2161 46.5877C44.9289 46.3608 44.7929 46.0129 44.7929 45.5136C44.7929 44.7118 45.4353 44.3033 46.2968 44.5529C46.4404 44.5908 46.5765 44.6059 46.6143 44.5908C46.6898 44.5378 46.5538 44.084 46.4404 44.0083C46.2742 43.91 45.3068 43.9554 44.9516 44.0764Z" fill="#0000FF"/>
<path d="M30.1086 44.3563C29.2772 44.5832 28.8464 45.2186 28.8464 46.202C28.8464 46.9736 29.2092 47.382 30.0934 47.6165C31.2346 47.9115 32.1945 47.5863 32.5572 46.792C32.7235 46.4138 32.7462 45.5666 32.595 45.2111C32.459 44.8858 32.1189 44.5832 31.7486 44.4471C31.2724 44.2807 30.5242 44.2353 30.1086 44.3563ZM31.3858 44.969C32.0206 45.2338 32.0131 46.6029 31.3782 47.0189C31.1288 47.1854 30.4487 47.1778 30.1312 47.0114C29.6853 46.7769 29.572 46.1188 29.8667 45.4077C30.0708 44.9161 30.7736 44.7118 31.3858 44.969Z" fill="#0000FF"/>
<path d="M42.0041 44.4471C41.4826 44.5077 41.0292 44.5833 40.9914 44.6211C40.878 44.7346 41.1501 47.6695 41.2786 47.7754C41.3541 47.8284 41.6867 47.8208 42.4273 47.7527C43.0017 47.6998 43.5156 47.6393 43.5685 47.6166C43.697 47.5712 43.6819 47.2081 43.5534 47.1552C43.4929 47.1325 43.1302 47.1476 42.7447 47.193C42.3593 47.2384 42.0343 47.2611 42.0192 47.2459C42.0041 47.2384 41.9739 47.019 41.9512 46.7618L41.8983 46.2928H42.1552C42.2988 46.2928 42.5936 46.2701 42.8128 46.2474C43.1831 46.2021 43.2057 46.1869 43.2057 45.9827C43.2057 45.8692 43.1755 45.7558 43.1377 45.7331C43.1075 45.7104 42.8052 45.7255 42.4802 45.7558C42.1552 45.7936 41.8756 45.8163 41.8605 45.8087C41.8529 45.7936 41.8227 45.612 41.7925 45.3927C41.7547 45.0523 41.7622 45.0069 41.8907 45.0069C42.2308 44.9993 43.168 44.848 43.2209 44.7951C43.3116 44.7043 43.1528 44.3261 43.0395 44.3337C42.9866 44.3412 42.518 44.3942 42.0041 44.4471Z" fill="#0000FF"/>
<path d="M33.5776 44.6968C33.5549 44.7271 33.4793 45.4457 33.4113 46.2929C33.3055 47.5864 33.3055 47.836 33.3886 47.889C33.5322 47.9797 34.0386 47.9722 34.099 47.889C34.1217 47.8436 34.1595 47.541 34.1897 47.2157L34.2351 46.6181L34.9002 46.656C35.5652 46.6938 35.5652 46.6938 35.6106 46.4971C35.6861 46.2248 35.603 46.1416 35.278 46.1416C35.1193 46.1416 34.8321 46.1189 34.6356 46.0962L34.2804 46.0433L34.3031 45.6197L34.3258 45.2036L35.0286 45.2263L35.7239 45.249V44.9843V44.7271L35.2176 44.6817C34.492 44.606 33.6229 44.6212 33.5776 44.6968Z" fill="#0000FF"/>
<path d="M38.2781 44.6816L37.4619 44.7118V44.969V45.2338H37.9909C38.2857 45.2338 38.5275 45.2413 38.5275 45.2489C38.5351 45.264 38.5578 45.8616 38.588 46.5802C38.6258 47.6089 38.656 47.904 38.7467 47.9645C38.845 48.0325 39.4118 47.9947 39.4874 47.9191C39.5025 47.904 39.4798 47.3064 39.4345 46.5878C39.374 45.559 39.374 45.264 39.4496 45.2186C39.4949 45.1884 39.7368 45.1581 39.971 45.1581C40.4396 45.1581 40.5227 45.0976 40.4547 44.8102C40.4018 44.6059 40.5454 44.6135 38.2781 44.6816Z" fill="#0000FF"/>
</svg>
