<svg width="43" height="48" viewBox="0 0 43 48" fill="none" xmlns="http://www.w3.org/2000/svg">
<path d="M20.8315 0.0337734C20.577 0.0761962 20.4921 0.217606 20.379 0.811525C20.3083 1.22161 20.1527 2.0135 20.0395 2.565L19.8416 3.59729H20.1668C20.4497 3.59729 20.5063 3.52659 20.5063 3.15892C20.5063 2.77712 20.5487 2.73469 20.9022 2.77712C21.1992 2.8054 21.2982 2.90438 21.3265 3.20134C21.3548 3.48416 21.4538 3.59729 21.6518 3.59729C21.7932 3.59729 21.9205 3.51244 21.9205 3.41346C21.9205 3.17306 21.2558 0.0479143 21.1851 0.0054915C21.1709 -0.00864959 21.0012 0.0054915 20.8315 0.0337734ZM21.0578 1.53271C21.1568 2.07007 21.1427 2.22562 20.973 2.28218C20.6618 2.39531 20.6194 2.26804 20.7325 1.49029C20.7891 1.09434 20.8457 0.783243 20.874 0.811525C20.9022 0.839807 20.9871 1.16505 21.0578 1.53271Z" fill="#000168"/>
<path d="M18.6396 1.61771C18.6961 2.79141 18.6679 3.17322 18.5264 3.17322C18.4416 3.17322 18.3284 3.04595 18.286 2.8904C18.2436 2.70657 18.088 2.60758 17.89 2.60758C17.5789 2.60758 17.5647 2.65 17.692 3.06009C17.7627 3.31463 17.8193 3.54088 17.8193 3.54088C17.8193 3.55502 17.989 3.61159 18.187 3.65401C18.4274 3.72471 18.682 3.66815 18.8941 3.52674C19.2053 3.32877 19.2336 3.22978 19.2336 1.99952C19.2336 0.458156 19.1487 0.0622094 18.8093 0.0622094C18.583 0.0622094 18.5689 0.203619 18.6396 1.61771Z" fill="#000168"/>
<path d="M24.0991 1.00958C23.3071 3.73879 23.3354 3.5691 23.6182 3.6398C23.8162 3.69636 23.9294 3.59738 24.0284 3.30042C24.0991 3.07416 24.2264 2.89033 24.3112 2.89033C24.6648 2.89033 24.8911 3.0883 24.8911 3.3994C24.8911 3.7105 25.2305 4.02161 25.386 3.85191C25.4426 3.79535 25.2022 1.06615 25.0891 0.514652C25.0466 0.302537 24.9193 0.203551 24.6931 0.203551C24.3961 0.203551 24.3112 0.316678 24.0991 1.00958ZM24.7496 1.68835C24.7496 2.28227 24.7072 2.4661 24.5375 2.4661C24.4244 2.4661 24.3254 2.3954 24.3254 2.31055C24.3254 2.0843 24.6365 0.910598 24.6931 0.910598C24.7213 0.910598 24.7496 1.26412 24.7496 1.68835Z" fill="#000168"/>
<path d="M15.7266 0.472344C15.5993 0.543049 15.4862 1.09455 15.4013 2.05613C15.2316 4.19141 15.2316 4.14899 15.5569 4.06414C15.7549 4.00758 15.8397 3.86617 15.8397 3.56921C15.8397 3.20155 15.8822 3.15912 16.2357 3.20155C16.5044 3.22983 16.6317 3.32881 16.66 3.55507C16.7024 3.89445 16.8014 3.93687 17.1408 3.80961C17.2964 3.7389 17.2257 3.38538 16.7873 2.04199C16.264 0.40164 16.1367 0.203666 15.7266 0.472344ZM16.2216 2.63591C15.8963 2.84802 15.8114 2.74904 15.8963 2.31067C15.9387 2.07027 15.9812 1.70261 15.9953 1.49049C16.0094 1.23596 16.066 1.33494 16.1933 1.82987C16.3489 2.36723 16.3489 2.55106 16.2216 2.63591Z" fill="#000168"/>
<path d="M26.7721 0.698555C26.4327 0.938951 26.164 1.87225 26.1499 2.97525C26.1216 3.93683 26.3337 4.16309 27.2388 4.16309H27.8187L27.9601 3.31463L28.0874 2.48031L27.6914 2.38133C27.1823 2.28234 27.0408 2.39547 27.253 2.73485C27.4086 2.97525 27.352 3.73886 27.1681 3.73886C26.7863 3.72472 26.6873 3.4419 26.7721 2.55102C26.8711 1.54701 27.0833 1.00966 27.3378 1.0945C27.4368 1.12278 27.5217 1.27833 27.55 1.43388C27.6065 1.80155 28.1298 1.98538 28.1581 1.646C28.2005 0.995515 28.0167 0.712696 27.4227 0.585428C27.2106 0.528864 26.9418 0.571287 26.7721 0.698555Z" fill="#000168"/>
<path d="M12.7282 1.03778C12.3181 1.15091 12.3181 1.05192 12.7424 3.05994C12.9545 4.10637 13.1242 4.58716 13.2515 4.58716C13.5485 4.58716 13.6192 4.21949 13.4636 3.59729C13.3646 3.1872 13.3788 3.03165 13.5061 2.98923C13.7889 2.8761 13.9586 3.07408 14.1283 3.69628C14.2556 4.16293 14.3405 4.26192 14.5667 4.20535C14.7789 4.14879 14.8213 4.0498 14.7506 3.68214C14.6092 2.91853 14.4395 2.60743 14.1849 2.60743C14.001 2.60743 13.9869 2.565 14.1142 2.43773C14.3263 2.22562 14.3405 1.54686 14.1425 1.17919C13.9869 0.896372 13.4212 0.839808 12.7282 1.03778ZM13.6899 1.9428C13.7182 2.19734 13.6616 2.35289 13.5061 2.40945C13.2232 2.52258 13.2091 2.50844 13.1101 1.92866C13.0252 1.50443 13.0394 1.46201 13.3363 1.50443C13.5626 1.53271 13.6616 1.65998 13.6899 1.9428Z" fill="#000168"/>
<path d="M28.7802 2.83392C28.4549 4.20559 28.4267 4.50255 28.5822 4.60153C28.9075 4.79951 28.9641 4.75708 29.0631 4.19145C29.1903 3.39955 29.3318 3.21572 29.6288 3.45612C29.7702 3.56924 29.8268 3.76722 29.7843 3.93691C29.756 4.1066 29.6712 4.40356 29.6288 4.60153C29.558 4.89849 29.6005 4.98334 29.8268 5.05404C30.0672 5.11061 30.1237 5.01162 30.2652 4.4177C30.3925 3.89449 30.3925 3.66823 30.2793 3.5551C30.0672 3.34299 30.0813 3.1733 30.3359 3.1733C30.5622 3.1733 30.8733 2.19757 30.746 1.85819C30.6612 1.64608 29.7278 1.19357 29.3601 1.19357C29.2328 1.19357 29.0348 1.73092 28.7802 2.83392ZM30.0955 2.38141C30.0672 2.72079 29.9823 2.83392 29.7278 2.8622C29.4166 2.90462 29.4025 2.87634 29.4873 2.43797C29.6288 1.81577 29.6712 1.7592 29.9257 1.85819C30.0672 1.91475 30.1237 2.08445 30.0955 2.38141Z" fill="#000168"/>
<path d="M10.5646 1.85808C10.3383 1.91464 10.31 2.02777 10.3807 2.57927C10.4231 2.94693 10.4938 3.76711 10.5504 4.40345C10.5928 5.05393 10.6777 5.57715 10.7343 5.57715C11.003 5.56301 11.201 5.29433 11.1303 5.02565C11.0878 4.82768 11.1444 4.68627 11.3141 4.58728C11.696 4.37517 11.8374 4.41759 11.9222 4.72869C11.9929 5.01151 12.3607 5.1105 12.5021 4.88424C12.5869 4.74283 11.0595 1.74495 10.9181 1.77324C10.8616 1.78738 10.706 1.81566 10.5646 1.85808ZM11.3 4.03579C11.0878 4.16305 10.9323 3.75297 10.9181 2.96107C10.904 2.57927 10.9323 2.60755 11.201 3.21561C11.4555 3.79539 11.4697 3.92266 11.3 4.03579Z" fill="#000168"/>
<path d="M31.4247 3.66816C30.9438 4.47419 30.5479 5.15296 30.5479 5.19538C30.5479 5.2378 30.6468 5.30851 30.7741 5.35093C30.9156 5.40749 31.0994 5.32265 31.2408 5.13882C31.4388 4.88428 31.5378 4.856 31.7782 4.98327C31.9904 5.09639 32.047 5.2378 31.9904 5.52062C31.9338 5.84586 32.1177 6.12868 32.4005 6.14282C32.4429 6.14282 32.5561 5.52062 32.6551 4.75701C32.7541 4.00754 32.8531 3.18737 32.8955 2.94697C32.9662 2.59345 32.9096 2.49446 32.6409 2.36719C32.3157 2.22578 32.2591 2.28235 31.4247 3.66816ZM32.3015 3.92269C32.2025 4.6156 32.1601 4.65802 31.8348 4.46005C31.6792 4.36106 31.7075 4.2338 31.9762 3.753C32.146 3.4419 32.3157 3.20151 32.3439 3.21565C32.3722 3.24393 32.3439 3.56917 32.3015 3.92269Z" fill="#000168"/>
<path d="M8.51323 2.7207C8.37181 2.81969 8.38595 2.97524 8.61223 3.49845C8.89508 4.14893 8.89508 4.16308 8.62637 4.30448C8.25867 4.50246 8.27281 4.5166 8.06067 3.86612C7.83439 3.20149 7.67883 3.06008 7.42426 3.32876C7.2687 3.49845 7.33941 3.79541 7.84854 5.05395C8.17381 5.88827 8.4708 6.58118 8.49909 6.58118C8.52737 6.58118 8.6688 6.53875 8.79608 6.49633C9.02236 6.41149 9.02236 6.35492 8.75365 5.6903C8.52737 5.11052 8.51323 4.94083 8.65466 4.85598C8.95165 4.65801 9.10722 4.78528 9.3335 5.40748C9.53149 5.98726 9.67291 6.10038 9.98405 5.88827C10.1679 5.77514 9.07893 2.73484 8.83851 2.64999C8.75365 2.63585 8.61223 2.66414 8.51323 2.7207Z" fill="#000168"/>
<path d="M34.1963 3.83785C33.8004 4.29036 33.8004 4.62974 34.1398 5.39335C34.4226 6.00141 34.4509 6.15697 34.3095 6.36908C34.0408 6.7226 33.6024 6.52463 33.7155 6.1004C33.8145 5.70445 33.3195 5.29437 33.1781 5.66203C32.9094 6.35494 33.4751 7.13269 34.2105 7.13269C34.5499 7.13269 34.6913 7.0337 34.8752 6.68018C35.0873 6.25595 35.0873 6.19939 34.7903 5.49234C34.6206 5.08225 34.5075 4.62974 34.5358 4.48833C34.6065 4.10653 34.9883 4.17723 35.0449 4.58732C35.0732 4.78529 35.1722 5.02569 35.257 5.12468C35.3843 5.28023 35.4409 5.28023 35.5965 5.06811C35.8793 4.67217 35.8086 4.36106 35.3419 3.96512C34.8328 3.54089 34.4933 3.49847 34.1963 3.83785Z" fill="#000168"/>
<path d="M5.50157 4.62969C5.30357 4.78524 5.31772 4.96907 5.77028 6.52458C6.20869 8.09422 6.2794 8.23563 6.51983 8.10836C6.73196 7.99523 6.76025 7.91039 6.64711 7.61343C6.46326 7.14678 6.46326 7.16092 6.80267 6.99123C7.02895 6.86396 7.14209 6.8781 7.34009 7.04779C7.58051 7.25991 8.13207 7.21748 8.03307 7.00537C7.91993 6.72255 5.99655 4.46 5.86927 4.46C5.79856 4.46 5.62885 4.5307 5.50157 4.62969ZM6.64711 6.15691C6.7461 6.3266 6.71782 6.43973 6.59054 6.55286C6.43497 6.68013 6.35012 6.59528 6.16626 6.05792C6.03898 5.69026 5.93998 5.35088 5.93998 5.30845C5.93998 5.20947 6.44911 5.83167 6.64711 6.15691Z" fill="#000168"/>
<path d="M35.8939 6.45396L34.9888 7.89634L35.5262 8.37713C35.8797 8.68823 36.1485 8.82964 36.304 8.77307C36.502 8.68823 36.4737 8.61752 36.1343 8.264C35.7525 7.86805 35.7525 7.83977 35.9787 7.48625C36.2474 7.06202 36.3182 7.06202 36.6576 7.37312C36.8697 7.55695 36.9546 7.57109 37.096 7.42968C37.2233 7.28827 37.1809 7.18929 36.8839 6.94889C36.5162 6.65193 36.5162 6.62365 36.7424 6.24184C37.0253 5.78933 37.0819 5.77519 37.4071 6.14286C37.7041 6.4681 37.8455 6.49638 37.9445 6.2277C37.987 6.12872 37.7607 5.83176 37.4071 5.5348L36.7849 5.01158L35.8939 6.45396Z" fill="#000168"/>
<path d="M17.8195 5.43577C13.2232 6.05797 9.09358 7.95286 6.26509 10.7103C4.39828 12.5204 3.38003 14.2314 2.81433 16.4798C2.39005 18.1202 2.48905 20.5666 3.01232 22.1928C4.31343 26.1523 8.3016 29.7016 13.3363 31.3844C16.2214 32.346 17.3669 32.5157 21.0722 32.5015C24.7776 32.5015 25.9655 32.3318 28.8082 31.3844C33.857 29.7016 37.8311 26.1664 39.1322 22.1928C39.6554 20.5666 39.7544 18.1202 39.3302 16.4798C38.7927 14.3163 37.9442 12.8598 36.1623 10.9932C33.7297 8.44779 30.18 6.62361 25.9514 5.71859C24.8483 5.47819 23.9149 5.40749 21.6379 5.36507C20.0398 5.33678 18.3286 5.36507 17.8195 5.43577ZM21.5531 5.9307C22.5713 6.42564 23.3633 8.46193 23.9714 12.2517L24.0563 12.7891L24.8624 12.379C26.8565 11.375 29.0203 10.8376 29.9679 11.0921C32.0468 11.6436 31.2831 14.189 28.0445 17.597L26.7434 18.9687L27.8748 20.0858C29.982 22.1645 31.1134 23.9321 31.1134 25.1624C31.1134 25.9684 30.9437 26.2937 30.4063 26.5765C29.5153 27.0431 27.5353 26.6755 25.3291 25.6432C24.6786 25.3462 24.1129 25.12 24.0846 25.1482C24.0563 25.1765 23.9714 25.6008 23.9007 26.0957C23.3209 29.843 22.2461 32.0914 21.044 32.049C19.8701 32.0207 18.8519 29.8713 18.2438 26.124L18.0882 25.12L16.9992 25.6149C13.9869 27.0148 12.0776 27.227 11.3281 26.2654C10.4654 25.1907 11.4412 23.0695 14.0717 20.312L15.4011 18.9121L14.2697 17.795C12.9686 16.5081 11.8938 15.1506 11.3847 14.1466C11.0028 13.3971 10.9038 12.2941 11.1725 11.7851C11.7382 10.7386 14.0152 10.9225 16.8154 12.2376C17.4659 12.5345 18.0316 12.7749 18.0599 12.7325C18.0882 12.7042 18.2013 12.1244 18.3145 11.4315C18.668 9.23969 19.3469 7.20339 19.9833 6.39735C20.153 6.18524 20.8884 5.71859 21.044 5.71859C21.0722 5.71859 21.2985 5.81758 21.5531 5.9307Z" fill="#D71921"/>
<path d="M20.7612 7.09014C20.1955 7.74062 19.6723 9.2537 19.3046 11.4031C18.9651 13.3404 18.9651 13.3546 19.9834 13.9202C20.4642 14.1889 20.9309 14.4293 21.0158 14.4576C21.1007 14.4859 21.5956 14.2313 22.1189 13.9061C23.1796 13.2414 23.1796 13.2839 22.8402 11.4031C22.5715 9.89004 22.232 8.61736 21.8785 7.91031C21.5956 7.31639 21.2421 6.84974 21.0724 6.84974C21.0158 6.84974 20.8744 6.96287 20.7612 7.09014Z" fill="#D71921"/>
<path d="M28.6384 12.181C27.8606 12.3507 26.3898 12.8881 25.3291 13.3971L24.1411 13.9486L24.2401 14.684C24.2825 15.0799 24.325 15.7304 24.325 16.1405C24.325 16.8475 24.3533 16.89 25.1028 17.5263L25.8665 18.1909L26.3473 17.8233C27.012 17.3142 28.9495 15.0658 29.5294 14.1466C29.7981 13.7224 30.0385 13.1285 30.0809 12.8315C30.1517 12.28 30.1375 12.2659 29.6991 12.1669C29.2183 12.082 29.091 12.082 28.6384 12.181Z" fill="#D71921"/>
<path d="M12.0353 12.4213C11.6252 12.9162 12.8414 14.8535 14.8921 16.9888L16.1507 18.2898L16.971 17.6252C17.7913 16.9605 17.8054 16.9605 17.8054 16.1828C17.8196 15.7586 17.862 15.0798 17.9044 14.6839L17.9893 13.9768L16.7447 13.397C14.4536 12.3365 12.4454 11.9264 12.0353 12.4213Z" fill="#D71921"/>
<path d="M18.8944 14.8537C18.7954 15.1223 18.7813 16.0415 18.8803 16.0415C18.9227 16.0415 19.2056 15.8577 19.5167 15.6314L20.0824 15.2213L19.6157 14.9244C19.0359 14.5708 19.0076 14.5708 18.8944 14.8537Z" fill="#D71921"/>
<path d="M22.5148 14.9244L22.0623 15.2213L22.628 15.6314C22.9391 15.8577 23.2219 16.0415 23.2644 16.0415C23.4058 16.0415 23.2644 14.7264 23.1229 14.6698C23.0522 14.6557 22.7694 14.7688 22.5148 14.9244Z" fill="#D71921"/>
<path d="M19.8135 16.7486L18.668 17.597V18.9404V20.2838L19.8277 21.1323C20.4641 21.5989 21.0156 21.9807 21.0722 21.9807C21.1288 21.9807 21.6803 21.5989 22.3167 21.1323L23.4764 20.2838V19.0253C23.4764 18.0354 23.4198 17.7101 23.236 17.4839C22.9531 17.1728 21.2136 15.9001 21.058 15.9001C21.0015 15.9001 20.4358 16.2819 19.8135 16.7486ZM21.9349 17.1021C22.8683 17.597 23.2218 19.1242 22.6279 20.1C21.9207 21.2737 20.2236 21.2737 19.5165 20.1C19.1771 19.5485 19.1488 18.4596 19.4458 17.8657C19.8984 17.0031 21.0439 16.6496 21.9349 17.1021Z" fill="#D71921"/>
<path d="M17.353 18.6293L16.9712 18.9545L17.3672 19.2515L17.749 19.5343V18.9262C17.749 18.5869 17.749 18.304 17.749 18.304C17.749 18.3182 17.5793 18.4596 17.353 18.6293Z" fill="#D71921"/>
<path d="M24.3821 18.9546V19.5626L24.7498 19.2515C24.9478 19.0818 25.1175 18.9404 25.1316 18.9263C25.1599 18.9263 24.9902 18.7849 24.7639 18.6293L24.3679 18.3324L24.3821 18.9546Z" fill="#D71921"/>
<path d="M15.0618 20.7928C12.5586 23.3241 11.3848 25.4735 12.3889 25.7139C13.096 25.8977 14.8214 25.4169 16.8155 24.5119L18.0034 23.9604L17.9044 23.2251C17.862 22.815 17.8196 22.1221 17.8196 21.6979C17.8054 20.9343 17.7913 20.906 17.07 20.3545C16.6741 20.0434 16.2922 19.7747 16.2356 19.7464C16.1932 19.7181 15.6558 20.1848 15.0618 20.7928Z" fill="#D71921"/>
<path d="M25.0745 20.3262C24.3533 20.9059 24.3391 20.9342 24.325 21.6978C24.325 22.1221 24.2826 22.8008 24.2401 23.1968L24.1553 23.9038L25.3998 24.4836C27.7757 25.5866 29.784 25.9825 30.0951 25.4169C30.2931 25.0775 29.9537 24.2291 29.19 23.1685C28.4263 22.0938 26.2059 19.7181 25.9655 19.7322C25.8807 19.7322 25.4847 20.0009 25.0745 20.3262Z" fill="#D71921"/>
<path d="M18.8091 22.3624C18.8091 23.225 18.9788 23.3522 19.5728 22.9704L20.096 22.6593L19.5586 22.2493C19.2616 22.023 18.9788 21.8392 18.9222 21.8392C18.8515 21.8392 18.8091 22.0796 18.8091 22.3624Z" fill="#D71921"/>
<path d="M22.5855 22.2635L22.0623 22.6594L22.5714 22.9846C22.9957 23.2392 23.1088 23.2533 23.2078 23.0978C23.3634 22.8574 23.3775 21.8392 23.2361 21.8534C23.1654 21.8534 22.8825 22.0372 22.5855 22.2635Z" fill="#D71921"/>
<path d="M19.9832 23.9887C18.9225 24.6674 18.9366 24.6392 19.4316 27.0714C19.8135 28.9521 20.2519 30.1824 20.7186 30.7198C21.0014 31.0591 21.058 31.0733 21.2984 30.8895C21.751 30.5076 22.3308 28.9521 22.6985 27.128C23.1935 24.6957 23.1794 24.5967 22.1328 23.9462C21.6661 23.6493 21.1853 23.4089 21.0721 23.423C20.959 23.423 20.464 23.6776 19.9832 23.9887Z" fill="#D71921"/>
<path d="M3.43632 6.45394L3.12518 6.7509L3.69088 7.8539C3.98787 8.46196 4.24244 8.99931 4.24244 9.05588C4.24244 9.11244 3.81816 8.77306 3.30904 8.33469L2.37563 7.51451L2.05036 7.8539L1.71094 8.19328L2.70091 9.46596C3.25247 10.1589 3.76159 10.7386 3.84645 10.7386C4.21415 10.7386 4.05859 10.371 3.32318 9.39526C2.44635 8.27812 2.50292 8.26398 3.71917 9.31041C4.48286 9.9609 4.55357 10.0033 4.77985 9.77706C4.99199 9.55081 4.97785 9.46596 4.41215 8.33469C4.08687 7.67006 3.84645 7.13271 3.87473 7.13271C3.90302 7.13271 4.25658 7.58522 4.68085 8.12257C5.33141 8.97103 5.45869 9.08416 5.6284 8.91447C5.79811 8.74477 5.68497 8.53266 4.80814 7.42967C4.25658 6.72262 3.78988 6.14284 3.76159 6.14284C3.74745 6.14284 3.60603 6.28425 3.43632 6.45394Z" fill="#000168"/>
<path d="M37.8313 7.91043C37.2939 8.56092 36.8413 9.16898 36.8413 9.26796C36.8413 9.69219 37.209 9.48008 37.9161 8.63162C38.3263 8.12255 38.694 7.74074 38.7223 7.76902C38.7505 7.7973 38.4677 8.33466 38.1 8.971L37.4353 10.1306L37.7747 10.4699L38.1283 10.8093L39.2031 9.57906C40.1082 8.53263 40.2496 8.30638 40.0941 8.13669C39.9385 7.98114 39.8395 8.02356 39.4294 8.49021C39.1748 8.78717 38.7788 9.22554 38.5667 9.46594L38.1566 9.89016L38.6233 9.04171C38.8778 8.57506 39.189 8.02356 39.3162 7.81145C39.5142 7.44378 39.5142 7.40136 39.1748 7.07612L38.8213 6.73673L37.8313 7.91043Z" fill="#000168"/>
<path d="M3.88877 27.0713C3.8322 27.1562 3.87463 27.3259 3.97363 27.439C4.11505 27.6087 3.98777 27.7784 3.25236 28.4572C2.75737 28.8955 2.27653 29.3197 2.17753 29.3763C1.9654 29.5036 1.90883 29.843 2.09268 29.9561C2.16339 29.9985 2.71495 29.5884 3.32307 29.0511C4.11505 28.3582 4.48275 28.1178 4.61004 28.2168C4.69489 28.2875 4.87874 28.3157 5.00603 28.2592C5.20402 28.1885 5.14745 28.0753 4.70903 27.5804C4.11505 26.9158 4.01605 26.8592 3.88877 27.0713Z" fill="#000168"/>
<path d="M38.6089 27.9339C38.6089 28.0187 38.821 28.3581 39.0756 28.6692L39.5282 29.2631L38.8493 28.853C38.1988 28.4854 38.1563 28.4712 37.8876 28.7116C37.6755 28.9096 37.5906 28.9237 37.4068 28.7682C37.0957 28.5137 37.0249 28.6551 37.1381 29.2631C37.1946 29.5884 37.2936 29.7439 37.4068 29.7015C37.5058 29.6732 37.8593 29.9277 38.1988 30.2671C38.7645 30.8469 39.316 31.0873 39.316 30.7479C39.316 30.6631 39.316 30.5641 39.316 30.4934C39.316 30.4368 39.217 30.3944 39.1039 30.3944C38.7786 30.3944 37.9442 29.4894 37.9442 29.1359C37.9442 28.8389 37.9725 28.8389 39.019 29.3904C39.613 29.7015 40.207 30.0974 40.3484 30.2813C40.5888 30.5782 40.8717 30.6065 40.8717 30.3378C40.8717 30.154 38.8776 27.7783 38.7362 27.7783C38.6655 27.7783 38.6089 27.849 38.6089 27.9339Z" fill="#000168"/>
<path d="M3.80426 29.8855C3.04057 30.635 2.96986 30.8612 3.39413 31.243C3.63455 31.4552 3.73355 31.4693 4.04469 31.3279C4.35582 31.1865 4.3841 31.1299 4.22854 30.9461C4.1154 30.8047 4.0164 30.7764 3.90326 30.8895C3.5497 31.243 3.42242 30.9744 3.74769 30.5501C3.95983 30.2815 3.95983 30.2815 4.29925 30.5926L4.63867 30.9037L4.90737 30.5077C5.06294 30.2956 5.23265 30.0411 5.28922 29.9421C5.38822 29.7582 4.90737 29.1926 4.65281 29.1926C4.55381 29.1926 4.17197 29.5037 3.80426 29.8855ZM4.86495 29.7441C4.97809 29.9138 4.56796 30.2249 4.3841 30.1118C4.27096 30.0411 4.27096 29.9562 4.39825 29.8148C4.5821 29.5886 4.75181 29.5603 4.86495 29.7441Z" fill="#000168"/>
<path d="M34.8043 29.9561C34.6911 30.0975 34.6911 30.1824 34.8326 30.2955C35.1154 30.5359 35.37 30.3097 35.1437 29.9986C35.0023 29.8006 34.9457 29.7864 34.8043 29.9561Z" fill="#000168"/>
<path d="M36.2901 30.1259C35.9931 30.4229 35.9931 30.4795 36.4739 31.1299C36.8699 31.6814 37.4215 32.1622 37.6477 32.1622C37.8316 32.1622 38.1851 31.7239 38.1851 31.4835C38.1851 31.0592 37.9447 30.7906 37.7467 30.9885C37.6194 31.1158 37.6194 31.2006 37.7467 31.3703C38.0013 31.6673 37.7184 31.7663 37.3507 31.5117L37.0396 31.2855L37.3507 30.9461L37.6619 30.6067L37.3366 30.2532C36.9548 29.8431 36.6012 29.8007 36.2901 30.1259ZM37.0113 30.536C37.0537 30.6633 37.0537 30.8047 36.9972 30.8471C36.8982 30.9461 36.4881 30.6209 36.4881 30.4512C36.4881 30.2391 36.9123 30.3098 37.0113 30.536Z" fill="#000168"/>
<path d="M6.54778 31.342C5.44467 33.0672 5.4871 32.9682 5.71338 33.053C5.8548 33.1096 6.08108 32.8975 6.36393 32.445C6.60435 32.0632 6.8872 31.6814 7.00034 31.5965C7.33976 31.3137 7.3539 31.6814 7.01448 32.1763C6.19422 33.3924 6.19422 33.3924 6.4205 33.4773C6.56192 33.5338 6.81649 33.2651 7.21248 32.6429C7.83475 31.7096 7.86303 31.3137 7.3539 31.3137C7.07105 31.3137 7.07105 31.2996 7.41047 30.7905C7.74989 30.3097 7.77818 30.041 7.49533 30.041C7.43876 30.041 7.00034 30.6349 6.54778 31.342Z" fill="#000168"/>
<path d="M5.17562 30.6208C4.3695 31.5823 4.24221 32.1904 4.8362 32.3884C5.17562 32.4874 5.74131 32.049 5.52918 31.8369C5.43018 31.7379 5.3029 31.752 5.16147 31.8793C4.7372 32.2328 4.77963 31.8934 5.24633 31.2571C5.72717 30.5783 6.02416 30.4086 5.8686 30.8753C5.7696 31.2005 6.06659 31.4268 6.2363 31.1581C6.43429 30.847 6.37772 30.3662 6.1373 30.2672C5.72717 30.1117 5.54332 30.1824 5.17562 30.6208Z" fill="#000168"/>
<path d="M35.4131 30.8046C35.3707 30.9036 35.6394 31.4127 36.0071 31.9218C36.5162 32.6147 36.7284 32.8126 36.8556 32.7136C36.9971 32.6005 36.8698 32.3318 36.3182 31.5824C35.9222 31.045 35.5828 30.6067 35.5404 30.6067C35.5121 30.6067 35.4555 30.6915 35.4131 30.8046Z" fill="#000168"/>
<path d="M34.324 31.4693C33.9846 31.6673 34.0977 32.1481 34.6775 32.9683C35.1442 33.6188 35.5968 33.7602 35.9221 33.3642C36.1625 33.0673 35.8938 32.4168 35.5685 32.5299C35.4129 32.6006 35.3988 32.6713 35.5119 32.8976C35.7948 33.4208 35.3139 33.1097 34.8755 32.4733C34.4654 31.8936 34.4513 31.54 34.8472 31.8653C35.1867 32.1481 35.4129 31.9077 35.1301 31.5825C34.8614 31.2855 34.6917 31.2572 34.324 31.4693Z" fill="#000168"/>
<path d="M7.65089 32.8692C7.18419 33.7601 7.11348 33.9863 7.28318 34.057C7.42461 34.1136 7.59432 33.9439 7.79231 33.5338C8.30144 32.5439 8.51358 32.2753 8.66915 32.4308C8.754 32.5157 8.64086 32.8409 8.35801 33.3358C7.87717 34.1701 7.8206 34.4247 8.10345 34.4247C8.30144 34.4247 9.20656 32.7702 9.19242 32.4025C9.19242 32.2328 9.07928 32.1621 8.82471 32.1621C8.62672 32.1621 8.49944 32.1056 8.54186 32.0349C8.58429 31.9642 8.54186 31.8793 8.42872 31.8369C8.30144 31.7945 8.04688 32.1338 7.65089 32.8692Z" fill="#000168"/>
<path d="M10.0969 31.8935C10.0545 31.9784 10.0686 32.1056 10.1535 32.1905C10.3373 32.3743 10.606 32.2188 10.606 31.9359C10.606 31.7097 10.2383 31.6673 10.0969 31.8935Z" fill="#000168"/>
<path d="M30.9431 32.0349C30.632 32.2187 30.6037 32.9682 30.9007 33.3924C31.028 33.5621 31.3391 33.7459 31.622 33.8025C32.216 33.9156 32.711 34.5095 32.3715 34.7075C32.2584 34.7923 32.1028 34.7641 31.9473 34.6227C31.7068 34.4105 31.3957 34.354 31.3957 34.5378C31.3957 34.5944 31.4947 34.7923 31.622 34.962C32.0038 35.5135 32.9514 35.2731 32.9514 34.6227C32.9514 34.0005 32.5695 33.4631 32.0745 33.3641C31.5513 33.251 31.1129 32.9257 31.1129 32.6288C31.1129 32.3742 31.4947 32.3884 31.6503 32.6571C31.721 32.7985 31.8624 32.8409 32.0038 32.7843C32.216 32.7136 32.216 32.6571 32.018 32.2894C31.8058 31.851 31.3957 31.7662 30.9431 32.0349Z" fill="#000168"/>
<path d="M33.0937 32.2753C32.8109 32.5157 32.7826 32.5864 32.9382 33.0248C33.023 33.2935 33.221 33.7177 33.3766 33.9723C33.6029 34.3399 33.7443 34.4389 34.0413 34.3965C34.6211 34.3258 34.7484 33.9864 34.4373 33.2793C34.1403 32.6289 33.7019 32.0208 33.518 32.0208C33.4614 32.0208 33.2634 32.1339 33.0937 32.2753ZM33.914 33.2086C34.3807 34.1419 34.112 34.3682 33.617 33.449C33.4049 33.0672 33.2352 32.6854 33.2352 32.5864C33.2352 32.2329 33.5887 32.5582 33.914 33.2086Z" fill="#000168"/>
<path d="M9.27759 33.6752C8.86746 34.5095 8.79675 34.7782 8.93817 34.863C9.06545 34.9479 9.26345 34.6933 9.6453 33.958C10.2393 32.7984 10.2534 32.7843 9.99886 32.6853C9.87157 32.6429 9.63115 32.9823 9.27759 33.6752Z" fill="#000168"/>
<path d="M13.916 33.1944C13.8877 33.2933 13.6473 34.0428 13.3785 34.8771C12.9967 36.1074 12.9401 36.4044 13.1098 36.4609C13.2088 36.5033 13.3361 36.4609 13.3644 36.3619C13.4068 36.2771 13.6473 35.5135 13.916 34.6792C14.2978 33.4489 14.3544 33.1519 14.1847 33.0954C14.0857 33.0529 13.9584 33.0954 13.916 33.1944Z" fill="#000168"/>
<path d="M10.4791 33.3358C10.2246 33.6469 9.77202 35.0186 9.85688 35.2166C9.98416 35.5701 10.4791 35.5984 10.7903 35.2873C11.0307 35.0469 11.059 34.9621 10.9034 34.8206C10.762 34.6651 10.7054 34.6792 10.5923 34.8914C10.2953 35.4146 10.2104 34.9479 10.4933 34.2833C10.7903 33.548 11.0307 33.3641 11.0307 33.8591C11.0307 34.0146 11.1297 34.1419 11.257 34.1419C11.4126 34.1419 11.455 34.0287 11.4267 33.6752C11.3984 33.3076 11.3136 33.2086 11.0166 33.1803C10.8186 33.152 10.5781 33.2368 10.4791 33.3358Z" fill="#000168"/>
<path d="M12.0489 33.7459C11.9499 33.8449 11.8791 34.0004 11.8791 34.0994C11.8791 34.3398 12.261 34.3398 12.3458 34.0994C12.3741 34.0146 12.459 33.9722 12.5156 34.0287C12.7136 34.2267 12.4448 34.5661 12.1054 34.5661C11.6812 34.5661 11.271 35.1034 11.3417 35.556C11.37 35.7681 11.5539 35.9236 11.8933 36.0367L12.4024 36.2206L12.7136 35.2731C13.0954 34.0712 13.0954 33.8873 12.6428 33.7176C12.2044 33.5479 12.2469 33.5479 12.0489 33.7459ZM12.3034 35.1034C12.3034 35.3156 11.9074 35.7681 11.8084 35.6691C11.6529 35.5135 11.8791 34.9903 12.1054 34.9903C12.2186 34.9903 12.3034 35.0469 12.3034 35.1034Z" fill="#000168"/>
<path d="M16.0516 34.0287C15.7971 35.4287 15.5991 36.9135 15.6415 36.9842C15.6698 37.0407 15.9526 37.1114 16.2638 37.1397C16.7305 37.1821 16.8295 37.1397 16.8295 36.9417C16.8295 36.7862 16.7305 36.6872 16.5608 36.6872C16.193 36.6872 16.1082 36.5175 16.2072 35.9943C16.292 35.6266 16.3628 35.5559 16.6597 35.5842C16.9143 35.6125 17.0416 35.5559 17.084 35.3721C17.1264 35.1883 17.0416 35.1317 16.7729 35.1317C16.49 35.1317 16.4052 35.061 16.4052 34.8065C16.4052 34.3398 16.6173 34.0994 16.9426 34.1984C17.1264 34.2691 17.2537 34.2125 17.3103 34.057C17.4234 33.76 17.4517 33.7742 16.7305 33.661C16.1506 33.5762 16.1365 33.5762 16.0516 34.0287Z" fill="#000168"/>
<path d="M25.1736 34.0005C25.1736 34.1561 25.2726 34.2833 25.3857 34.2833C25.4989 34.2833 25.5979 34.1561 25.5979 34.0005C25.5979 33.845 25.4989 33.7177 25.3857 33.7177C25.2726 33.7177 25.1736 33.845 25.1736 34.0005Z" fill="#000168"/>
<path d="M18.4421 34.5095C18.3714 35.0327 18.3149 35.1176 18.1451 34.9762C17.7633 34.6509 17.5087 35.1458 17.4805 36.2771L17.4663 37.3235L18.0462 37.3377L18.626 37.366L18.725 36.1498C18.7816 35.4711 18.8523 34.7216 18.8947 34.4812C18.9513 34.1701 18.9088 34.0146 18.7533 33.958C18.5977 33.8873 18.527 34.0146 18.4421 34.5095ZM18.2583 36.2488C18.2159 36.6024 18.0886 36.8993 17.9754 36.9417C17.8199 36.9983 17.7916 36.871 17.8623 36.2771C17.9613 35.4287 18.0886 35.1458 18.2441 35.4287C18.3007 35.5418 18.3149 35.9095 18.2583 36.2488Z" fill="#000168"/>
<path d="M28.4259 34.1135C28.4259 34.1842 28.3128 34.2408 28.1855 34.2267C27.8744 34.2125 27.8744 34.5943 28.2138 35.7397C28.3552 36.2347 28.5249 36.5458 28.6522 36.5458C28.9068 36.5458 28.9068 36.4751 28.6381 35.6125C28.3976 34.8064 28.3693 34.4246 28.5673 34.4246C28.6381 34.4246 28.8219 34.863 28.9916 35.4145C29.2179 36.164 29.331 36.3761 29.5007 36.3054C29.6139 36.263 29.6705 36.1215 29.6422 35.9943C29.5997 35.867 29.4442 35.3862 29.3028 34.9196C29.1048 34.2549 28.9916 34.057 28.7371 34.0287C28.5673 34.0004 28.4259 34.0428 28.4259 34.1135Z" fill="#000168"/>
<path d="M24.2826 34.3822C24.2261 34.4247 24.1836 34.5802 24.1836 34.7216C24.1836 34.8489 24.1129 34.9903 24.0281 35.0186C23.9149 35.061 23.9291 35.1458 24.0705 35.2872C24.1978 35.4004 24.3392 35.8246 24.3816 36.2064C24.5089 37.0973 24.6362 37.2953 25.0463 37.2246C25.3433 37.1821 25.3433 37.168 25.1453 36.9559C24.82 36.6306 24.6503 35.4287 24.9049 35.259C25.0746 35.1458 25.0605 35.0893 24.8625 34.9337C24.721 34.8347 24.6079 34.6368 24.6079 34.5095C24.6079 34.2832 24.4523 34.2125 24.2826 34.3822Z" fill="#000168"/>
<path d="M26.5176 34.6509C26.2913 34.8913 26.3196 35.4004 26.6024 36.362C26.8145 37.0266 27.5924 37.168 27.7621 36.56C27.8469 36.2206 27.5924 34.8348 27.4085 34.5944C27.2105 34.354 26.8004 34.3823 26.5176 34.6509ZM27.2105 35.2731C27.253 35.4994 27.3378 35.8812 27.3802 36.1216C27.4368 36.4327 27.4085 36.5458 27.253 36.5458C27.1257 36.5458 27.0125 36.3479 26.9418 36.0085C26.8994 35.7256 26.8145 35.3438 26.7721 35.16C26.7155 34.9479 26.758 34.8489 26.9135 34.8489C27.0408 34.8489 27.1681 35.0186 27.2105 35.2731Z" fill="#000168"/>
<path d="M25.4143 34.8207C25.3436 34.9055 25.485 35.952 25.6689 36.7863C25.782 37.2812 26.2063 37.2105 26.1073 36.7156C26.0649 36.5035 25.9659 35.9661 25.881 35.5136C25.7396 34.7783 25.5699 34.5379 25.4143 34.8207Z" fill="#000168"/>
<path d="M19.3048 35.1742C19.2624 35.2731 19.2341 35.8388 19.2624 36.4186L19.3048 37.465L19.8422 37.4791C20.1251 37.4933 20.3655 37.4933 20.3796 37.4791C20.3796 37.465 20.4362 36.9418 20.4786 36.2913C20.5776 35.2449 20.5635 35.1317 20.3372 35.1317C20.1251 35.1317 20.0826 35.259 20.0826 35.8954C20.0826 36.7297 19.9836 37.1115 19.7715 37.1115C19.7008 37.1115 19.6584 36.6731 19.6725 36.0933C19.7008 35.4146 19.6442 35.061 19.5452 35.0186C19.4462 34.9903 19.3472 35.061 19.3048 35.1742Z" fill="#000168"/>
<path d="M21.1572 35.1742C20.8178 35.4288 20.8744 37.2247 21.2562 37.4509C21.5956 37.663 21.9775 37.4085 22.0341 36.9136C22.0623 36.659 22.0199 36.5459 21.8643 36.5459C21.7371 36.5459 21.6381 36.6732 21.6381 36.8287C21.6381 36.9843 21.5815 37.1115 21.4966 37.1115C21.4118 37.1115 21.3552 36.7297 21.3552 36.2489C21.3552 35.7257 21.4118 35.4288 21.4966 35.4853C21.5815 35.5277 21.6381 35.6691 21.6381 35.7823C21.6381 35.8954 21.7371 35.9802 21.8502 35.9802C22.1331 35.9802 22.1189 35.4995 21.8361 35.2166C21.5674 34.948 21.4825 34.9338 21.1572 35.1742Z" fill="#000168"/>
<path d="M22.6281 35.2591C22.4443 35.6267 22.4443 35.6974 22.6847 35.6974C22.7978 35.6974 22.9251 35.5984 22.9675 35.4712C23.0807 35.1884 23.3352 35.3439 23.3352 35.7116C23.3352 35.8813 23.2362 35.9802 23.0524 35.9802C22.6988 35.9802 22.4443 36.56 22.5715 37.055C22.6847 37.4792 22.8544 37.5923 23.1655 37.4509C23.2928 37.3943 23.5049 37.3661 23.6181 37.3802C23.8019 37.3943 23.8302 37.2388 23.7878 36.3762C23.7595 35.8106 23.6605 35.2591 23.5898 35.1601C23.3635 34.8914 22.7978 34.9621 22.6281 35.2591ZM23.3352 36.6873C23.3352 37.1398 23.1372 37.2529 22.9958 36.8994C22.911 36.6449 23.0241 36.2631 23.2079 36.2631C23.2787 36.2631 23.3352 36.4469 23.3352 36.6873Z" fill="#000168"/>
<path d="M0 40.6466C0 40.9294 0.0989972 40.9294 21.0723 40.9294C42.0455 40.9294 42.1445 40.9294 42.1445 40.6466C42.1445 40.3638 42.0455 40.3638 21.0723 40.3638C0.0989972 40.3638 0 40.3638 0 40.6466Z" fill="#000168"/>
<path d="M2.07873 42.1456C2.02216 42.2021 1.97974 43.1637 1.97974 44.2808V46.3171L2.65857 46.2747L3.32327 46.2323V44.7192C3.32327 43.8849 3.35156 43.2486 3.39398 43.3051C3.43641 43.3617 3.69097 44.0546 3.94554 44.8606L4.41224 46.3171L4.99208 46.2747L5.55778 46.2323L6.09519 44.6768L6.61846 43.1213L6.63261 44.7051L6.64675 46.303H7.28316H7.91957V44.1819V42.0607H6.85889H5.81234L5.40221 43.3617L5.00622 44.6768L4.58195 43.4041L4.14353 42.1314L3.1677 42.089C2.61615 42.0749 2.1353 42.089 2.07873 42.1456Z" fill="#000168"/>
<path d="M12.3039 44.1395C11.7524 45.2708 11.314 46.2324 11.314 46.2607C11.314 46.2748 11.6675 46.3031 12.0918 46.3031C12.7848 46.3031 12.8979 46.2607 13.0393 45.9496C13.1808 45.6243 13.2656 45.5961 14.1566 45.5961C15.0759 45.5961 15.1324 45.6102 15.2173 45.9496C15.3021 46.2748 15.3729 46.3031 16.1365 46.3031C16.5891 46.3031 16.971 46.2748 16.971 46.2465C16.971 46.2183 16.5325 45.2567 15.9951 44.1254L15.0051 42.0608H14.1425H13.2939L12.3039 44.1395ZM14.4112 43.8567C14.5243 44.1537 14.6374 44.4789 14.6657 44.5638C14.7223 44.691 14.5667 44.7476 14.1566 44.7476C13.8313 44.7476 13.5768 44.7052 13.5768 44.6486C13.5768 44.4365 14.0435 43.3335 14.1283 43.3335C14.1849 43.3335 14.3122 43.5739 14.4112 43.8567Z" fill="#000168"/>
<path d="M19.5164 42.584V43.1214H20.3225H21.1427L21.1852 44.7052L21.2276 46.3031H21.9913H22.7691V44.6769V43.0507H23.6318H24.4804L24.4379 42.584L24.3955 42.1315L21.963 42.0891L19.5164 42.0608V42.584Z" fill="#000168"/>
<path d="M28.002 44.182V46.3031H30.194H32.3861V45.8082V45.3132H30.9719H29.5576V44.889V44.4648H30.8304H32.1033V44.0406V43.6163H30.8163C29.5718 43.6163 29.5435 43.6022 29.5859 43.2911C29.6283 42.9941 29.6849 42.98 31.0143 42.98H32.4003L32.3578 42.5558L32.3154 42.1315L30.1658 42.0891L28.002 42.0467V44.182Z" fill="#000168"/>
<path d="M36.9114 42.3153C36.6427 42.4425 36.3315 42.7253 36.2042 42.9375C36.0204 43.291 36.0204 43.3475 36.2891 43.7152C36.5719 44.097 36.9538 44.2667 38.2973 44.6061C38.6367 44.6909 38.9479 44.8606 38.9903 44.9738C39.2024 45.5394 38.0286 45.7232 37.6043 45.2C37.2932 44.8041 35.9214 44.7334 35.9214 45.1152C35.9214 45.5394 36.6851 46.1333 37.3922 46.2323C38.9337 46.4727 40.2207 46.0767 40.5035 45.2849C40.8005 44.4505 40.3055 43.9415 38.8913 43.6162C37.6892 43.3617 37.6185 43.3334 37.6185 43.1213C37.6185 43.0082 37.774 42.8809 37.9579 42.8243C38.3256 42.7395 38.8913 42.9657 38.8913 43.2061C38.8913 43.291 39.2166 43.3334 39.6691 43.3193C40.4753 43.291 40.546 43.2203 40.3055 42.7819C39.952 42.1173 37.873 41.8345 36.9114 42.3153Z" fill="#000168"/>
<path d="M0 47.7172C0 48 0.0989972 48 21.0723 48C42.0455 48 42.1445 48 42.1445 47.7172C42.1445 47.4344 42.0455 47.4344 21.0723 47.4344C0.0989972 47.4344 0 47.4344 0 47.7172Z" fill="#000168"/>
</svg>
