<svg width="90" height="90" viewBox="0 0 90 90" fill="none" xmlns="http://www.w3.org/2000/svg">
<g id="blood-drop 4">
<path id="Vector" d="M45.0087 5.62469C44.6285 5.62535 44.2523 5.70308 43.903 5.85319C43.5537 6.0033 43.2384 6.22268 42.9763 6.49806C42.9763 6.49806 35.8248 13.913 28.6728 23.5205C21.5209 33.128 14.0563 44.6714 14.0563 54.7475C14.0563 62.7152 16.8663 70.1722 22.2132 75.6095C27.5602 81.0467 35.3999 84.3706 44.9867 84.3706C54.5734 84.3706 62.4352 81.0467 67.7821 75.6095C73.1291 70.1722 75.9445 62.7152 75.9445 54.7475C75.9445 44.6714 68.458 33.128 61.306 23.5205C54.1541 13.913 47.0245 6.49806 47.0245 6.49806C46.7643 6.22467 46.4517 6.00646 46.1054 5.85641C45.7591 5.70637 45.3861 5.62756 45.0087 5.62469Z" fill="#EF5350"/>
<path id="Vector_2" d="M44.9469 43.0005C44.2044 43.014 43.4974 43.3207 42.9801 43.8535C42.4628 44.3864 42.1773 45.1021 42.1857 45.8447V57.097C42.1857 57.8431 42.4821 58.5586 43.0097 59.0862C43.5372 59.6137 44.2527 59.9101 44.9988 59.9101C45.7449 59.9101 46.4604 59.6137 46.988 59.0862C47.5155 58.5586 47.8119 57.8431 47.8119 57.097V45.8447C47.8162 45.4683 47.7448 45.0948 47.6021 44.7464C47.4594 44.398 47.2482 44.0818 46.981 43.8166C46.7138 43.5513 46.3961 43.3424 46.0467 43.2023C45.6973 43.0621 45.3233 42.9935 44.9469 43.0005Z" fill="white"/>
<path id="Vector_3" d="M39.0924 47.812C38.3464 47.8506 37.6462 48.1839 37.146 48.7387C36.6457 49.2935 36.3864 50.0243 36.4249 50.7704C36.4634 51.5164 36.7967 52.2166 37.3515 52.7169C37.9063 53.2172 38.637 53.4766 39.3831 53.4381H50.6146C51.3607 53.4381 52.0762 53.1418 52.6038 52.6142C53.1314 52.0867 53.4277 51.3711 53.4277 50.6251C53.4277 49.879 53.1314 49.1635 52.6038 48.6359C52.0762 48.1084 51.3607 47.812 50.6146 47.812H39.3831C39.2863 47.807 39.1892 47.807 39.0924 47.812H39.0924Z" fill="white"/>
</g>
</svg>
