<svg width="96" height="96" viewBox="0 0 96 96" fill="none" xmlns="http://www.w3.org/2000/svg">
<path d="M62.7428 66.257H33.2575C31.3215 66.257 29.4044 66.6383 27.6157 67.3792C25.827 68.12 24.2018 69.206 22.8328 70.575C21.4638 71.944 20.3779 73.5692 19.637 75.3578C18.8961 77.1465 18.5148 79.0636 18.5148 80.9996C18.5148 84.2563 19.1721 85.7816 24.4119 86.8967C24.4119 86.8967 42.0523 90 48.0001 90C53.948 90 71.5884 86.8967 71.5884 86.8967C76.8282 85.7816 77.4855 84.2563 77.4855 80.9996C77.4855 79.0636 77.1042 77.1465 76.3633 75.3578C75.6224 73.5692 74.5364 71.944 73.1675 70.575C71.7985 69.206 70.1733 68.12 68.3846 67.3792C66.5959 66.6383 64.6788 66.257 62.7428 66.257Z" fill="url(#paint0_linear)"/>
<path d="M48 75.1026C45.654 75.1026 43.4041 74.1706 41.7452 72.5118C40.0864 70.8529 39.1544 68.603 39.1544 66.257V60.36H56.8456V66.257C56.8456 68.603 55.9136 70.8529 54.2548 72.5118C52.5959 74.1706 50.346 75.1026 48 75.1026Z" fill="#F2A783"/>
<path d="M48 75.1026C45.654 75.1026 43.4041 74.1706 41.7452 72.5118C40.0864 70.8529 39.1544 68.603 39.1544 66.257V60.36H56.8456V66.257C56.8456 68.603 55.9136 70.8529 54.2548 72.5118C52.5959 74.1706 50.346 75.1026 48 75.1026Z" fill="url(#paint1_linear)"/>
<path d="M68.4082 47.332C68.4595 47.0269 68.6046 46.7454 68.8234 46.5267C69.0422 46.3081 69.3237 46.1631 69.6288 46.1119C70.9952 45.8691 72.2337 45.1562 73.13 44.0967C74.0263 43.0371 74.524 41.6976 74.5369 40.3099V35.8871C74.5237 34.4934 74.0217 33.1486 73.1184 32.0872C72.2151 31.0257 70.9679 30.3151 69.5943 30.079C69.2996 30.0287 69.0266 29.8916 68.8103 29.6852C68.594 29.4789 68.4442 29.2127 68.38 28.9207C67.7934 26.2983 66.3317 23.9536 64.2354 22.2723C62.1391 20.5911 59.533 19.6734 56.8457 19.6702H39.1546C36.4673 19.6734 33.8612 20.5911 31.7649 22.2723C29.6686 23.9536 28.2069 26.2983 27.6203 28.9207C27.5561 29.2127 27.4063 29.4789 27.19 29.6852C26.9737 29.8916 26.7007 30.0287 26.406 30.079C25.0324 30.3151 23.7852 31.0257 22.8819 32.0872C21.9787 33.1486 21.4766 34.4934 21.4634 35.8871V40.3099C21.4764 41.6976 21.9741 43.0371 22.8703 44.0966C23.7666 45.1561 25.005 45.869 26.3713 46.1119C26.6764 46.163 26.958 46.308 27.1768 46.5267C27.3956 46.7453 27.5407 47.0268 27.592 47.3319L68.4082 47.332Z" fill="#F2A783"/>
<path d="M68.4082 47.332C68.4595 47.0269 68.6046 46.7454 68.8234 46.5267C69.0422 46.3081 69.3237 46.1631 69.6288 46.1119C70.9952 45.8691 72.2337 45.1562 73.13 44.0967C74.0263 43.0371 74.524 41.6976 74.5369 40.3099V35.8871C74.5237 34.4934 74.0217 33.1486 73.1184 32.0872C72.2151 31.0257 70.9679 30.3151 69.5943 30.079C69.2996 30.0287 69.0266 29.8916 68.8103 29.6852C68.594 29.4789 68.4442 29.2127 68.38 28.9207C67.7934 26.2983 66.3317 23.9536 64.2354 22.2723C62.1391 20.5911 59.533 19.6734 56.8457 19.6702H39.1546C36.4673 19.6734 33.8612 20.5911 31.7649 22.2723C29.6686 23.9536 28.2069 26.2983 27.6203 28.9207C27.5561 29.2127 27.4063 29.4789 27.19 29.6852C26.9737 29.8916 26.7007 30.0287 26.406 30.079C25.0324 30.3151 23.7852 31.0257 22.8819 32.0872C21.9787 33.1486 21.4766 34.4934 21.4634 35.8871V40.3099C21.4764 41.6976 21.9741 43.0371 22.8703 44.0966C23.7666 45.1561 25.005 45.869 26.3713 46.1119C26.6764 46.163 26.958 46.308 27.1768 46.5267C27.3956 46.7453 27.5407 47.0268 27.592 47.3319L68.4082 47.332Z" fill="url(#paint2_radial)"/>
<path d="M28.8328 46.8754L26.0248 30.0211C25.8211 28.7978 27.6702 28.4885 27.8744 29.713L30.6824 46.5672L28.8328 46.8754Z" fill="#EAF5FB"/>
<path d="M41.0114 38.7914C42.1584 37.6444 42.1584 35.7848 41.0114 34.6378C39.8645 33.4909 38.0049 33.4909 36.8579 34.6378C35.7109 35.7848 35.7109 37.6444 36.8579 38.7914C38.0049 39.9383 39.8645 39.9383 41.0114 38.7914Z" fill="#3D3C3B"/>
<path d="M59.1437 38.7915C60.2906 37.6445 60.2906 35.7849 59.1437 34.6379C57.9967 33.491 56.1371 33.491 54.9901 34.6379C53.8431 35.7849 53.8431 37.6445 54.9901 38.7915C56.1371 39.9385 57.9967 39.9385 59.1437 38.7915Z" fill="#3D3C3B"/>
<path d="M69.0488 46.3998H60.4758C57.3082 46.3998 54.2641 45.3654 51.6055 43.6434C50.4435 42.8908 47.4376 41.668 44.3878 43.6434C41.7292 45.3654 38.6851 46.3998 35.5175 46.3998H26.9513C27.1165 47.4059 29.0501 65.4303 47.9983 65.4303C63.4747 65.4303 67.822 53.9237 69.0488 46.3998Z" fill="#EAF5FB"/>
<path d="M65.3176 46.5671L68.1256 29.7129C68.3297 28.4894 70.1787 28.7979 69.9752 30.0211L67.1672 46.8753L65.3176 46.5671Z" fill="#B2C8CE"/>
<path d="M69.0488 46.3998H60.4758C57.3082 46.3998 54.2641 45.3654 51.6055 43.6434C50.4435 42.8908 47.4376 41.668 44.3878 43.6434C41.7292 45.3654 38.6851 46.3998 35.5175 46.3998H26.9513C27.1165 47.4059 29.0501 65.4303 47.9983 65.4303C63.4747 65.4303 67.822 53.9237 69.0488 46.3998Z" fill="url(#paint3_radial)"/>
<path d="M63.5281 7.85875C56.5864 5.84794 42.5176 4.94875 32.4718 7.85875C29.2938 8.78419 26.5022 10.7165 24.5169 13.3651C22.5316 16.0137 21.46 19.2353 21.4632 22.5453V37.9053C33.4745 19.4439 62.5285 19.4486 74.5368 37.9053V22.5453C74.54 19.2353 73.4684 16.0137 71.4831 13.3651C69.4978 10.7165 66.7062 8.78419 63.5281 7.85875Z" fill="#56A5FC"/>
<path d="M63.5281 7.85875C56.5864 5.84794 42.5176 4.94875 32.4718 7.85875C29.2938 8.78419 26.5022 10.7165 24.5169 13.3651C22.5316 16.0137 21.46 19.2353 21.4632 22.5453V37.9053C33.4745 19.4439 62.5285 19.4486 74.5368 37.9053V22.5453C74.54 19.2353 73.4684 16.0137 71.4831 13.3651C69.4978 10.7165 66.7062 8.78419 63.5281 7.85875Z" fill="url(#paint4_linear)"/>
<path d="M65.5192 66.5217C61.14 71.8019 54.9118 75.1026 48.0001 75.1026C41.0884 75.1026 34.8602 71.8019 30.481 66.5217C27.1144 67.1677 24.0781 68.9665 21.8942 71.6087C19.7103 74.251 18.5153 77.5717 18.5147 80.9996C18.5147 84.2563 19.1719 85.7817 24.4118 86.8967C24.4118 86.8967 42.0522 90 48 90C53.9478 90 71.5883 86.8967 71.5883 86.8967C76.8281 85.7817 77.4853 84.2563 77.4853 80.9996C77.4847 77.5717 76.2898 74.251 74.1059 71.6088C71.922 68.9665 68.8857 67.1677 65.5192 66.5217Z" fill="#56A5FC"/>
<path d="M65.5192 66.5217C61.14 71.8019 54.9118 75.1026 48.0001 75.1026C41.0884 75.1026 34.8602 71.8019 30.481 66.5217C27.1144 67.1677 24.0781 68.9665 21.8942 71.6087C19.7103 74.251 18.5153 77.5717 18.5147 80.9996C18.5147 84.2563 19.1719 85.7817 24.4118 86.8967C24.4118 86.8967 42.0522 90 48 90C53.9478 90 71.5883 86.8967 71.5883 86.8967C76.8281 85.7817 77.4853 84.2563 77.4853 80.9996C77.4847 77.5717 76.2898 74.251 74.1059 71.6088C71.922 68.9665 68.8857 67.1677 65.5192 66.5217Z" fill="url(#paint5_linear)"/>
<path d="M41.0114 38.7914C42.1584 37.6444 42.1584 35.7848 41.0114 34.6378C39.8645 33.4909 38.0049 33.4909 36.8579 34.6378C35.7109 35.7848 35.7109 37.6444 36.8579 38.7914C38.0049 39.9383 39.8645 39.9383 41.0114 38.7914Z" fill="url(#paint6_radial)"/>
<path d="M59.1437 38.7915C60.2906 37.6445 60.2906 35.7849 59.1437 34.6379C57.9967 33.491 56.1371 33.491 54.9901 34.6379C53.8431 35.7849 53.8431 37.6445 54.9901 38.7915C56.1371 39.9385 57.9967 39.9385 59.1437 38.7915Z" fill="url(#paint7_radial)"/>
<defs>
<linearGradient id="paint0_linear" x1="48.0001" y1="90" x2="48.0001" y2="66.2569" gradientUnits="userSpaceOnUse">
<stop stop-color="#F8FAFB"/>
<stop offset="0.521" stop-color="#F6F9FA"/>
<stop offset="0.709" stop-color="#EFF3F6"/>
<stop offset="0.843" stop-color="#E4EAEF"/>
<stop offset="0.95" stop-color="#D3DDE5"/>
<stop offset="1" stop-color="#C8D5DE"/>
</linearGradient>
<linearGradient id="paint1_linear" x1="48" y1="75.1025" x2="48" y2="60.36" gradientUnits="userSpaceOnUse">
<stop stop-color="#F2A783" stop-opacity="0"/>
<stop offset="0.064" stop-color="#F0A17F" stop-opacity="0.123"/>
<stop offset="0.198" stop-color="#ED9777" stop-opacity="0.353"/>
<stop offset="0.333" stop-color="#EA8E71" stop-opacity="0.551"/>
<stop offset="0.468" stop-color="#E7876B" stop-opacity="0.713"/>
<stop offset="0.603" stop-color="#E58167" stop-opacity="0.839"/>
<stop offset="0.736" stop-color="#E47D64" stop-opacity="0.928"/>
<stop offset="0.869" stop-color="#E37B63" stop-opacity="0.982"/>
<stop offset="1" stop-color="#E37A62"/>
</linearGradient>
<radialGradient id="paint2_radial" cx="0" cy="0" r="1" gradientUnits="userSpaceOnUse" gradientTransform="translate(18.7514 19.0449) scale(45.9806)">
<stop stop-color="#F2A783" stop-opacity="0"/>
<stop offset="0.139" stop-color="#F2A682" stop-opacity="0.017"/>
<stop offset="0.272" stop-color="#F1A481" stop-opacity="0.068"/>
<stop offset="0.404" stop-color="#F0A07E" stop-opacity="0.153"/>
<stop offset="0.534" stop-color="#EE9B7A" stop-opacity="0.274"/>
<stop offset="0.664" stop-color="#EC9475" stop-opacity="0.429"/>
<stop offset="0.792" stop-color="#E98B6F" stop-opacity="0.618"/>
<stop offset="0.918" stop-color="#E58167" stop-opacity="0.839"/>
<stop offset="1" stop-color="#E37A62"/>
</radialGradient>
<radialGradient id="paint3_radial" cx="0" cy="0" r="1" gradientUnits="userSpaceOnUse" gradientTransform="translate(20.2949 35.4729) scale(45.8332)">
<stop stop-color="#EAF5FB" stop-opacity="0"/>
<stop offset="0.18" stop-color="#E9F4FB" stop-opacity="0.014"/>
<stop offset="0.319" stop-color="#E6F2F9" stop-opacity="0.057"/>
<stop offset="0.443" stop-color="#E0EFF7" stop-opacity="0.13"/>
<stop offset="0.56" stop-color="#D8EBF5" stop-opacity="0.234"/>
<stop offset="0.67" stop-color="#CEE5F1" stop-opacity="0.367"/>
<stop offset="0.777" stop-color="#C1DEED" stop-opacity="0.531"/>
<stop offset="0.88" stop-color="#B2D5E7" stop-opacity="0.726"/>
<stop offset="0.978" stop-color="#A1CBE1" stop-opacity="0.945"/>
<stop offset="1" stop-color="#9DC9E0"/>
</radialGradient>
<linearGradient id="paint4_linear" x1="21.4633" y1="21.9518" x2="74.5367" y2="21.9518" gradientUnits="userSpaceOnUse">
<stop stop-color="#56A5FC" stop-opacity="0"/>
<stop offset="0.775" stop-color="#427EC1" stop-opacity="0.772"/>
<stop offset="1" stop-color="#3C73B0"/>
</linearGradient>
<linearGradient id="paint5_linear" x1="5841.57" y1="9866.14" x2="24388.4" y2="9866.14" gradientUnits="userSpaceOnUse">
<stop stop-color="#56A5FC" stop-opacity="0"/>
<stop offset="0.775" stop-color="#427EC1" stop-opacity="0.772"/>
<stop offset="1" stop-color="#3C73B0"/>
</linearGradient>
<radialGradient id="paint6_radial" cx="0" cy="0" r="1" gradientUnits="userSpaceOnUse" gradientTransform="translate(35.0054 32.9046) scale(6.48318)">
<stop offset="0.282" stop-color="#3D3C3B" stop-opacity="0"/>
<stop offset="0.514" stop-color="#393837" stop-opacity="0.169"/>
<stop offset="0.826" stop-color="#2D2C2B" stop-opacity="0.646"/>
<stop offset="1" stop-color="#242423"/>
</radialGradient>
<radialGradient id="paint7_radial" cx="0" cy="0" r="1" gradientUnits="userSpaceOnUse" gradientTransform="translate(1718.82 1064.62) scale(203.106)">
<stop offset="0.282" stop-color="#3D3C3B" stop-opacity="0"/>
<stop offset="0.514" stop-color="#393837" stop-opacity="0.169"/>
<stop offset="0.826" stop-color="#2D2C2B" stop-opacity="0.646"/>
<stop offset="1" stop-color="#242423"/>
</radialGradient>
</defs>
</svg>
