<svg width="76" height="76" viewBox="0 0 76 76" fill="none" xmlns="http://www.w3.org/2000/svg">
<path d="M76 38C76 17.0164 58.9836 0 38 0C17.0164 0 0 17.0164 0 38C0 58.9836 17.0164 76 38 76C58.9836 76 76 58.9836 76 38Z" fill="#4381C5"/>
<path d="M21.1672 26.5893C21.1672 24.4603 21.8566 22.3008 23.2197 20.1105C24.5827 17.9202 26.5894 16.1129 29.2085 14.6729C31.8276 13.2333 34.8909 12.5134 38.3984 12.5134C41.6454 12.5134 44.5247 13.1108 47.006 14.3207C49.5026 15.5155 51.4173 17.1542 52.7804 19.2221C54.1434 21.2899 54.8174 23.526 54.8174 25.9461C54.8174 27.8604 54.4344 29.5299 53.6534 30.9545C52.8724 32.3942 51.9531 33.6348 50.8965 34.6764C49.8244 35.7177 47.9252 37.4791 45.1529 39.945C44.3869 40.6345 43.7744 41.2469 43.3148 41.7831C42.8552 42.3039 42.5184 42.7939 42.2886 43.2228C42.0588 43.667 41.8906 44.0958 41.7678 44.54C41.6454 44.9842 41.4614 45.7502 41.2165 46.8527C40.7877 49.1808 39.4551 50.3602 37.219 50.3602C36.0549 50.3602 35.0745 49.9772 34.2781 49.2116C33.4817 48.4456 33.0836 47.3123 33.0836 45.8114C33.0836 43.9276 33.3746 42.2885 33.9567 40.9101C34.5387 39.5316 35.3197 38.3218 36.2847 37.2801C37.2494 36.2385 38.5513 34.9979 40.1903 33.5582C41.63 32.3022 42.6562 31.3525 43.2994 30.7093C43.9427 30.0661 44.4789 29.3616 44.9077 28.5652C45.3519 27.7838 45.5663 26.9262 45.5663 26.0073C45.5663 24.2151 44.8923 22.6988 43.56 21.4582C42.2274 20.2175 40.4967 19.6051 38.3981 19.6051C35.9322 19.6051 34.1095 20.2329 32.9454 21.4736C31.7814 22.7142 30.786 24.5523 29.9895 26.972C29.2239 29.5148 27.7839 30.7705 25.6552 30.7705C24.3991 30.7705 23.3421 30.3263 22.4691 29.4382C21.6114 28.5802 21.1672 27.6306 21.1672 26.5893ZM37.6016 63.4711C36.2386 63.4711 35.0441 63.0269 34.0179 62.1385C32.9916 61.2504 32.4862 60.0098 32.4862 58.4169C32.4862 57.0077 32.9762 55.8128 33.9717 54.8482C34.9521 53.8831 36.1774 53.4081 37.6016 53.4081C39.0109 53.4081 40.2057 53.8985 41.1704 54.8482C42.1354 55.8128 42.6104 57.0077 42.6104 58.4169C42.6104 59.9944 42.105 61.2196 41.0938 62.1234C40.0829 63.0269 38.9189 63.4711 37.6016 63.4711Z" fill="white"/>
</svg>
