<svg width="90" height="70" viewBox="0 0 90 70" fill="none" xmlns="http://www.w3.org/2000/svg">
<path d="M32.984 46.0185C32.449 51.747 32.3624 54.4029 30.3174 60.608C28.4416 66.2889 22.9683 69.0682 17.0209 69.7994C12.2613 69.2376 7.97402 67.5353 5.8471 65.1568C-2.36603 55.9556 1.0101 39.644 3.5035 34.9584C6.55622 29.2161 8.12336 25.3375 10.5348 19.0338C12.5847 13.6828 17.6723 6.02519 23.6431 3.83594C24.1786 4.03859 24.6751 4.28831 25.1337 4.58108C28.2107 6.52509 29.6326 10.2853 30.7568 13.9191C32.3624 19.1096 32.6858 33.4206 32.6858 33.4206C33.3175 38.3039 33.3267 42.3099 32.984 46.0185Z" fill="#F68270"/>
<path d="M57.0503 46.0185C57.5853 51.747 57.6728 54.4029 59.7173 60.608C61.5936 66.2889 67.0674 69.0682 73.0134 69.7994C77.773 69.2376 82.0612 67.5353 84.1881 65.1568C92.4008 55.9556 89.0251 39.644 86.5317 34.9584C83.479 29.2161 81.9118 25.3375 79.5004 19.0338C77.4505 13.6828 72.362 6.02519 66.3921 3.83594C65.8566 4.03859 65.3601 4.28831 64.9015 4.58108C61.825 6.52509 60.4026 10.2853 59.2784 13.9191C57.6728 19.1096 57.3494 33.4206 57.3494 33.4206C56.7177 38.3039 56.7085 42.3099 57.0503 46.0185Z" fill="#E56D64"/>
<path d="M83.9079 48.7602L81.9881 49.5901L83.2089 50.7979C83.2089 50.8266 83.1988 51.2512 82.6541 51.2512L80.8163 49.5856C80.8163 49.5856 76.8666 49.1422 75.4534 48.9162C75.4534 48.9162 76.4039 50.2509 76.9289 50.6997C77.4502 51.1431 78.294 51.9685 78.294 51.9685C78.294 51.9685 78.3522 52.6105 77.7878 52.459L76.4374 51.1709C76.4374 51.1709 75.9646 52.6339 76.1433 53.2799C76.1433 53.2799 75.386 53.7144 75.0672 53.1199C75.0672 53.1199 75.1927 51.3646 75.5885 50.7979C75.5885 50.7979 74.4648 49.2982 74.1611 48.5383C74.1611 48.5383 70.0135 45.9383 68.4368 45.0233C68.5087 46.0944 68.528 47.0946 68.4414 47.8111C68.4414 47.8111 70.6118 52.3743 73.5825 53.7901C76.5578 55.2051 76.9587 55.5171 76.9587 55.5171H82.5048C82.5048 55.5171 83.0687 55.7341 82.5048 56.1488H77.7828L80.6184 58.3291C80.6184 58.3291 80.6766 59.0371 79.8327 58.7443C79.8327 58.7443 77.1227 56.6779 76.2152 56.2053C75.3132 55.7341 72.883 54.7904 72.348 54.0264C72.348 54.0264 74.5903 58.2722 74.8313 58.565C75.0727 58.8622 78.9308 61.2779 79.1722 61.8114C79.4136 62.3395 79.0512 62.4574 78.5061 62.2835C77.9665 62.1042 75.6756 60.3341 75.0727 60.0413C75.0727 60.0413 75.4346 62.2835 75.3132 62.8116C75.1927 63.3443 74.6481 63.1649 74.5276 62.5189C74.4071 61.8679 74.2289 59.2724 73.9252 58.7443C73.6256 58.2108 71.6343 54.4976 71.1524 54.082C70.6695 53.6722 68.4414 50.78 68.0795 49.9537C68.0795 49.9537 66.5989 54.7339 66.7345 56.503C66.8733 58.2722 71.3347 62.5758 71.8175 62.8116C71.8175 62.8116 71.938 63.5191 70.9737 63.4626C70.9737 63.4626 69.4638 62.1042 68.7405 61.2779C68.7405 61.2779 68.9237 63.6375 68.8614 64.0526C68.8614 64.0526 68.1372 64.7601 67.8962 64.0526L67.7753 60.0983C67.7753 60.0983 66.4496 58.3901 66.2082 57.8005C66.2082 57.8005 65.5481 61.6935 65.6685 62.7551L66.9952 65.5245C66.9952 65.5245 66.7538 66.1755 66.2709 65.5245L65.0652 63.4012L63.7386 64.935C63.7386 64.935 63.1944 64.9964 63.1362 64.345L64.9448 62.0472C64.9448 62.0472 65.0652 57.4468 65.1857 55.7956C65.1857 55.7956 63.6768 57.0312 63.1944 57.6826C62.7125 58.3291 61.81 59.3908 61.81 59.3908C61.81 59.3908 61.0432 59.5275 61.1641 58.8622L62.5723 57.1679C62.5723 57.1679 60.7633 56.777 60.0015 57.05C60.0015 57.05 59.3991 56.2246 60.0789 55.7956C60.0789 55.7956 62.2104 55.753 62.9337 56.1488C62.9337 56.1488 64.6223 54.6913 65.5045 54.2613C65.5045 54.2613 66.238 50.7979 66.7345 48.5194C66.7345 48.5194 67.2888 41.4509 63.778 37.3176C63.1032 38.1247 62.5192 39.0213 62.2296 39.9458C61.2163 43.1497 60.9511 43.598 60.9511 43.598L61.8247 49.1565C61.8247 49.1565 61.6845 49.756 61.1641 49.2556L60.4216 44.5279L58.5837 47.7075C58.5837 47.7075 57.8558 47.8779 58.0244 46.9857C58.0244 46.9857 59.7647 43.9473 60.1128 42.9658C60.4646 41.9934 61.0675 39.4221 61.7766 38.7573C61.5352 38.9267 57.6867 41.6728 57.4266 41.9512C57.1558 42.2395 55.2323 46.4808 54.711 46.8072C54.1998 47.1323 54.0165 46.7875 54.1132 46.2168C54.219 45.6465 55.7041 43.0833 55.9171 42.4278C55.7815 42.4659 53.6111 43.1398 53.0568 43.103C52.4828 43.0649 52.5841 42.4892 53.2401 42.2673C53.9052 42.0458 56.5924 41.4563 57.0981 41.0689C57.6093 40.6869 61.1834 38.1054 61.5398 37.5584C61.6799 37.3414 62.177 36.7985 62.7743 36.1856C59.4664 32.3917 51.5524 25.1443 45.9147 24.3234C45.6055 24.2759 45.3068 24.2521 45.0178 24.2476C39.3557 24.3467 30.7468 32.1841 27.2598 36.1856C27.8586 36.7985 28.3551 37.3414 28.4944 37.5584C28.8517 38.1054 32.4253 40.6869 32.9365 41.0689C33.4431 41.4563 36.1289 42.0458 36.7941 42.2673C37.451 42.4892 37.5522 43.0649 36.9778 43.103C36.423 43.1398 34.2526 42.4659 34.1184 42.4278C34.33 43.0833 35.8161 45.6465 35.9219 46.2168C36.0185 46.7875 35.8353 47.1323 35.3241 46.8072C34.8028 46.4808 32.8792 42.2395 32.6085 41.9512C32.3479 41.6728 28.4999 38.9267 28.2585 38.7573C28.9671 39.4221 29.5704 41.9934 29.9223 42.9658C30.2695 43.9473 32.0107 46.9857 32.0107 46.9857C32.1793 47.8779 31.4514 47.7075 31.4514 47.7075L29.6135 44.5279L28.8709 49.2556C28.3505 49.756 28.2108 49.1565 28.2108 49.1565L29.083 43.598C29.083 43.598 28.8178 43.1497 27.8054 39.9458C27.5159 39.0213 26.9323 38.1247 26.2571 37.3176C22.7462 41.4509 23.301 48.5194 23.301 48.5194C23.7971 50.7979 24.5305 54.2613 24.5305 54.2613C25.4133 54.6913 27.1009 56.1488 27.1009 56.1488C27.8247 55.753 29.9562 55.7956 29.9562 55.7956C30.636 56.2246 30.0336 57.05 30.0336 57.05C29.2708 56.777 27.4628 57.1679 27.4628 57.1679L28.8709 58.8622C28.9919 59.5275 28.2246 59.3908 28.2246 59.3908C28.2246 59.3908 27.3226 58.3291 26.8407 57.6826C26.3583 57.0312 24.8484 55.7956 24.8484 55.7956C24.9689 57.4468 25.0898 62.0472 25.0898 62.0472L26.8988 64.345C26.8407 64.9964 26.2955 64.935 26.2955 64.935L24.9689 63.4012L23.7641 65.5245C23.2813 66.1755 23.0403 65.5245 23.0403 65.5245L24.3665 62.7551C24.4875 61.6935 23.8269 57.8005 23.8269 57.8005C23.5855 58.3901 22.2588 60.0983 22.2588 60.0983L22.1384 64.0526C21.8969 64.7601 21.1736 64.0526 21.1736 64.0526C21.1113 63.6375 21.2946 61.2779 21.2946 61.2779C20.5712 62.1042 19.0614 63.4626 19.0614 63.4626C18.0971 63.5191 18.2176 62.8116 18.2176 62.8116C18.7004 62.5758 23.1608 58.2722 23.301 56.503C23.4361 54.7339 21.9551 49.9537 21.9551 49.9537C21.5937 50.78 19.3655 53.6722 18.8827 54.082C18.4008 54.4976 16.4095 58.2108 16.1099 58.7443C15.8062 59.2724 15.6284 61.8679 15.5075 62.5189C15.387 63.1649 14.8414 63.3443 14.7209 62.8116C14.6005 62.2835 14.9623 60.0413 14.9623 60.0413C14.36 60.3341 12.069 62.1042 11.5289 62.2835C10.9838 62.4574 10.6219 62.3395 10.8629 61.8114C11.1043 61.2779 14.9623 58.8622 15.2038 58.565C15.4443 58.2722 17.6871 54.0264 17.6871 54.0264C17.152 54.7904 14.7209 55.7341 13.819 56.2053C12.9128 56.6779 10.2023 58.7443 10.2023 58.7443C9.35851 59.0371 9.41577 58.3291 9.41577 58.3291L12.2523 56.1488H7.53027C6.96635 55.7341 7.53027 55.5171 7.53027 55.5171H13.0768C13.0768 55.5171 13.4772 55.2051 16.4525 53.7901C19.4237 52.3743 21.5937 47.8111 21.5937 47.8111C21.5062 47.0946 21.5259 46.0944 21.5983 45.0233C20.0215 45.9383 15.8735 48.5383 15.8735 48.5383C15.5702 49.2982 14.4465 50.7979 14.4465 50.7979C14.8414 51.3646 14.9669 53.1199 14.9669 53.1199C14.649 53.7144 13.8918 53.2799 13.8918 53.2799C14.0704 52.6339 13.5972 51.1709 13.5972 51.1709L12.2477 52.459C11.6829 52.6105 11.741 51.9685 11.741 51.9685C11.741 51.9685 12.5849 51.1431 13.1052 50.6997C13.6311 50.2509 14.5808 48.9162 14.5808 48.9162C13.168 49.1422 9.21879 49.5856 9.21879 49.5856L7.38093 51.2512C6.8358 51.2512 6.82664 50.8266 6.82664 50.7979L8.04699 49.5901L6.12713 48.7602C5.52932 48.4105 6.07399 48.1652 6.07399 48.1652L8.55273 49.0476C9.47853 49.0669 12.7772 48.2267 12.7772 48.2267C12.2523 48.0706 10.6796 47.1081 10.6796 47.1081L7.26961 47.3112C6.64294 47.165 7.19769 46.514 7.19769 46.514C7.54951 46.4342 9.59443 46.406 9.59443 46.406C8.82804 45.8724 7.54492 44.7305 7.54492 44.7305C7.42445 43.9428 8.0415 43.9845 8.0415 43.9845C8.27833 44.3673 12.3196 47.7129 13.8533 47.6931C14.2825 47.6896 20.0215 44.1405 21.7476 43.2487C21.9991 40.8663 22.3798 38.6299 22.3798 38.6299C20.9327 39.0446 16.3513 38.6905 16.3513 38.6905C11.4657 39.5728 9.59901 41.8764 9.59901 41.8764C9.17436 42.1682 8.87614 41.8764 8.87614 41.8764C9.71994 39.5728 15.1456 38.1901 15.1456 38.1901C10.7424 37.8135 8.57197 33.9721 8.57197 33.9721C8.51425 33.5009 9.11755 33.7363 9.11755 33.7363C12.069 37.6862 16.4095 37.332 19.3028 37.4459C22.1961 37.5584 23.6047 35.8596 23.6047 35.8596C25.0756 33.3731 26.6964 31.0803 28.3212 29.0135C25.9483 27.985 22.0174 26.7153 22.0174 26.7153C21.1979 27.2721 19.0664 28.0222 19.0664 28.0222C19.0664 28.8431 17.9958 30.6647 17.9958 30.6647C17.2771 31.0422 16.824 30.1177 16.824 30.1177C17.4411 29.5941 17.967 27.8384 17.967 27.8384L15.748 28.2347C15.092 28.0132 15.5895 27.4183 15.5895 27.4183C15.5895 27.4183 16.988 27.1542 17.803 27.0551C18.6275 26.9516 20.4746 26.2486 20.4746 26.2486C18.9262 25.55 14.7118 23.4177 14.7118 23.4177L11.7603 23.8611C11.1955 23.498 11.5189 23.0541 11.5189 23.0541L13.5491 22.6524L12.2179 20.5815C11.8661 19.8449 12.5702 19.9539 12.5702 19.9539L14.4268 22.4498C15.3288 23.068 19.1631 24.3848 19.1631 24.3848C18.7485 23.8889 17.8465 21.9171 17.8465 21.9171L14.3352 19.8884C13.8144 19.3356 14.8029 19.0572 14.8029 19.0572C15.1983 19.1988 17.1277 20.4309 17.2487 20.5058C16.8625 19.4773 16.3659 17.5144 16.3659 17.5144C16.7805 16.6554 17.3637 17.1042 17.3637 17.1042C17.3444 17.6368 19.0614 23.5827 20.5905 24.5588C22.1242 25.5411 27.1641 26.583 27.1641 26.583C26.5896 25.8711 25.061 22.5399 24.9258 21.9216C24.7866 21.3034 22.399 17.774 22.0609 17.2593C21.7284 16.7357 19.4713 15.3207 18.9464 14.9006C18.4205 14.485 18.5217 13.9237 19.0614 14.0797C19.5969 14.2303 21.4489 15.6318 21.4489 15.6318C21.4732 14.971 20.995 12.1312 21.087 11.5739C21.1979 11.0171 21.4824 10.7674 21.8397 11.2296C22.2062 11.7012 22.5094 16.2075 22.6642 16.5617C22.8044 16.9015 25.389 20.6663 25.553 20.9021C25.1237 20.0623 25.4609 17.5144 25.471 16.5092C25.4801 15.4947 24.9304 12.15 24.9304 12.15C25.0756 11.2767 25.6932 11.6681 25.6932 11.6681L26.2818 15.1835L28.5764 11.0973C29.2278 10.8144 29.1458 11.404 29.1458 11.404L26.4504 16.203C26.4504 16.203 26.537 16.698 26.373 19.9588C26.2044 23.2191 29.2708 27.3147 29.2708 27.3147C29.3675 27.3524 29.4738 27.3994 29.5851 27.4515C34.6149 21.4024 39.3173 17.6938 39.3173 17.6938L38.8344 0H51.1997L50.7178 17.6938C50.7178 17.6938 55.4206 21.4024 60.45 27.4515C60.5613 27.3994 60.6676 27.3524 60.7633 27.3147C60.7633 27.3147 63.8307 23.2191 63.6621 19.9588C63.4981 16.698 63.5847 16.203 63.5847 16.203L60.8893 11.404C60.8893 11.404 60.8073 10.8144 61.4578 11.0973L63.7533 15.1835L64.3419 11.6681C64.3419 11.6681 64.9594 11.2767 65.1037 12.15C65.1037 12.15 64.5549 15.4947 64.5641 16.5092C64.5732 17.5144 64.9113 20.0623 64.4821 20.9021C64.6461 20.6663 67.2311 16.9015 67.3708 16.5617C67.5247 16.2075 67.8289 11.7012 68.1954 11.2296C68.5527 10.7674 68.8367 11.0171 68.948 11.5739C69.0392 12.1312 68.5619 14.971 68.5861 15.6318C68.5861 15.6318 70.4377 14.2303 70.9737 14.0797C71.5133 13.9237 71.6146 14.485 71.0887 14.9006C70.5628 15.3207 68.3067 16.7357 67.9732 17.2593C67.636 17.774 65.2485 21.3034 65.1088 21.9216C64.9741 22.5399 63.445 25.8711 62.871 26.583C62.871 26.583 67.9109 25.5411 69.4446 24.5588C70.9737 23.5827 72.6897 17.6368 72.6714 17.1042C72.6714 17.1042 73.2545 16.6554 73.6691 17.5144C73.6691 17.5144 73.1725 19.4773 72.7864 20.5058C72.9073 20.4309 74.8363 19.1988 75.2312 19.0572C75.2312 19.0572 76.2207 19.3356 75.6994 19.8884L72.1886 21.9171C72.1886 21.9171 71.287 23.8889 70.8725 24.3848C70.8725 24.3848 74.7062 23.068 75.6082 22.4498L77.4653 19.9539C77.4653 19.9539 78.169 19.8449 77.8162 20.5815L76.4859 22.6524L78.5162 23.0541C78.5162 23.0541 78.8387 23.498 78.2748 23.8611L75.3233 23.4177C75.3233 23.4177 71.1084 25.55 69.5605 26.2486C69.5605 26.2486 71.4075 26.9516 72.2321 27.0551C73.047 27.1542 74.4456 27.4183 74.4456 27.4183C74.4456 27.4183 74.9422 28.0132 74.2871 28.2347L72.0681 27.8384C72.0681 27.8384 72.594 29.5941 73.211 30.1177C73.211 30.1177 72.758 31.0422 72.0392 30.6647C72.0392 30.6647 70.9682 28.8431 70.9682 28.0222C70.9682 28.0222 68.8367 27.2721 68.0176 26.7153C68.0176 26.7153 64.0858 27.985 61.7138 29.0135C63.3387 31.0803 64.9594 33.3731 66.4304 35.8596C66.4304 35.8596 67.839 37.5584 70.7323 37.4459C73.6256 37.332 77.9665 37.6862 80.918 33.7363C80.918 33.7363 81.5204 33.5009 81.4622 33.9721C81.4622 33.9721 79.2927 37.8135 74.8895 38.1901C74.8895 38.1901 80.3147 39.5728 81.1589 41.8764C81.1589 41.8764 80.8598 42.1682 80.4361 41.8764C80.4361 41.8764 78.5698 39.5728 73.6838 38.6905C73.6838 38.6905 69.1019 39.0446 67.6553 38.6299C67.6553 38.6299 68.036 40.8663 68.2865 43.2487C70.0135 44.1405 75.7525 47.6896 76.1818 47.6931C77.7159 47.7129 81.7567 44.3673 81.9936 43.9845C81.9936 43.9845 82.6106 43.9428 82.4901 44.7305C82.4901 44.7305 81.207 45.8724 80.4406 46.406C80.4406 46.406 82.4846 46.4342 82.8374 46.514C82.8374 46.514 83.3921 47.165 82.7645 47.3112L79.3554 47.1081C79.3554 47.1081 77.7828 48.0706 77.2578 48.2267C77.2578 48.2267 80.5556 49.0669 81.4823 49.0476L83.9606 48.1652C83.9606 48.1652 84.5057 48.4105 83.9079 48.7602Z" fill="#CE3928"/>
</svg>
