<svg width="78" height="78" viewBox="0 0 78 78" fill="none" xmlns="http://www.w3.org/2000/svg">
<g clip-path="url(#clip0)">
<path d="M71.3822 52.26C70.5412 52.26 69.8587 51.5775 69.8587 50.7366V25.1306C69.8587 16.4653 62.8144 9.42096 54.1491 9.42096H51.9309C51.09 9.42096 50.4075 8.73846 50.4075 7.89752C50.4075 7.05658 51.09 6.37408 51.9309 6.37408H54.1491C64.4841 6.37408 72.8934 14.7835 72.8934 25.1306V50.7488C72.8934 51.5775 72.2109 52.26 71.3822 52.26ZM2.16937 6.37408H39.195C40.0359 6.37408 40.7184 7.05658 40.7184 7.89752C40.7184 8.73846 40.0359 9.42096 39.195 9.42096H2.16937V6.37408Z" fill="#E1E2E0"/>
<path d="M14.0279 78C6.84945 78 1.03601 72.1744 1.03601 64.996V24.3628C1.03601 17.1844 6.86164 11.3588 14.0401 11.3588C21.2185 11.3588 27.0441 17.1844 27.0441 24.3628V64.996C27.0319 72.1744 21.2185 78 14.0279 78Z" fill="#6D6D6D"/>
<path d="M27.0441 27.8972H1.03601V61.4616H27.0441V27.8972Z" fill="#EEEEEE"/>
<path d="M20.3897 4.47284H7.66595V13.0163H20.3897V4.47284Z" fill="#7C7577"/>
<path d="M45.5691 78C38.3906 78 32.565 72.1744 32.565 64.996V24.3628C32.565 17.1844 38.3906 11.3588 45.5691 11.3588C52.7475 11.3588 58.5731 17.1844 58.5731 24.3628V64.996C58.5731 72.1744 52.7475 78 45.5691 78Z" fill="#6D6D6D"/>
<path d="M58.5731 27.8972H32.565V61.4616H58.5731V27.8972Z" fill="#EEEEEE"/>
<path d="M51.9309 4.47284H39.2072V13.0163H51.9309V4.47284Z" fill="#7C7577"/>
<path d="M76.9641 50.7365C76.9641 53.82 74.4656 56.3184 71.3822 56.3184C68.2987 56.3184 65.8003 53.82 65.8003 50.7365C65.8003 47.6531 68.2987 45.1547 71.3822 45.1547C74.4656 45.1547 76.9641 47.6531 76.9641 50.7365Z" fill="#D3D3D3"/>
<path d="M74.1123 50.7365C74.1123 52.2356 72.8935 53.4544 71.3945 53.4544C69.8954 53.4544 68.6766 52.2356 68.6766 50.7365C68.6766 49.2375 69.8954 48.0187 71.3945 48.0187C72.8935 48.0187 74.1123 49.2375 74.1123 50.7365Z" fill="#365470"/>
<path d="M21.3281 4.47281H6.7397C6.09376 4.47281 5.5697 3.94875 5.5697 3.30281V1.17C5.5697 0.524063 6.09376 0 6.7397 0H21.3281C21.9741 0 22.4981 0.524063 22.4981 1.17V3.30281C22.4981 3.94875 21.9741 4.47281 21.3281 4.47281ZM52.8694 4.47281H38.2688C37.6228 4.47281 37.0988 3.94875 37.0988 3.30281V1.17C37.0988 0.524063 37.6228 0 38.2688 0H52.8694C53.5153 0 54.0394 0.524063 54.0394 1.17V3.30281C54.0394 3.94875 53.5153 4.47281 52.8694 4.47281Z" fill="#365470"/>
</g>
<defs>
<clipPath id="clip0">
<rect width="78" height="78" fill="white"/>
</clipPath>
</defs>
</svg>
