<svg width="90" height="90" viewBox="0 0 90 90" fill="none" xmlns="http://www.w3.org/2000/svg">
<path d="M45.0087 5.62476C44.6285 5.62541 44.2523 5.70314 43.903 5.85325C43.5537 6.00336 43.2385 6.22274 42.9763 6.49812C42.9763 6.49812 35.8248 13.9131 28.6729 23.5206C21.5209 33.128 14.0563 44.6715 14.0563 54.7476C14.0563 62.7153 16.8663 70.1723 22.2132 75.6095C27.5602 81.0468 35.3999 84.3707 44.9867 84.3707C54.5735 84.3707 62.4352 81.0468 67.7821 75.6095C73.1291 70.1723 75.9446 62.7153 75.9446 54.7476C75.9446 44.6715 68.458 33.128 61.306 23.5206C54.1541 13.9131 47.0246 6.49812 47.0246 6.49812C46.7643 6.22474 46.4517 6.00652 46.1054 5.85647C45.7591 5.70643 45.3861 5.62763 45.0087 5.62476Z" fill="#FFBD00"/>
<path d="M44.9469 42.1443C44.2044 42.1578 43.4974 42.4645 42.9801 42.9973C42.4628 43.5301 42.1772 44.2459 42.1857 44.9885V56.2408C42.1857 56.9869 42.4821 57.7024 43.0096 58.23C43.5372 58.7575 44.2527 59.0539 44.9988 59.0539C45.7449 59.0539 46.4604 58.7575 46.9879 58.23C47.5155 57.7024 47.8119 56.9869 47.8119 56.2408V44.9885C47.8162 44.6121 47.7448 44.2386 47.6021 43.8902C47.4594 43.5418 47.2482 43.2256 46.981 42.9604C46.7138 42.6951 46.3961 42.4862 46.0467 42.3461C45.6973 42.2059 45.3233 42.1373 44.9469 42.1443Z" fill="white"/>
<path d="M39.0924 47.812C38.3464 47.8506 37.6462 48.1839 37.146 48.7387C36.6457 49.2935 36.3863 50.0243 36.4249 50.7704C36.4634 51.5164 36.7967 52.2166 37.3515 52.7169C37.9062 53.2172 38.637 53.4766 39.3831 53.4382H50.6146C51.3607 53.4382 52.0762 53.1418 52.6038 52.6142C53.1313 52.0867 53.4277 51.3711 53.4277 50.6251C53.4277 49.879 53.1313 49.1635 52.6038 48.6359C52.0762 48.1084 51.3607 47.812 50.6146 47.812H39.3831C39.2862 47.807 39.1892 47.807 39.0924 47.812H39.0924Z" fill="white"/>
</svg>
